{
  "source": "C:\\Users\\Peter\\Desktop\\stuff\\MIUN\\quantitative_research\\video_compression\\videos\\BVI-HD\\BVI-HD_CDVL_videos\\ORIG\\TreeTrunk_1920x1080_50fps.mp4",
  "output": "C:\\Users\\Peter\\Desktop\\stuff\\MIUN\\quantitative_research\\video_compression\\compressed_videos\\BVI-HD\\hevc\\1.5\\TreeTrunk_1920x1080_50fps_hevc.mp4",
  "codec": "hevc",
  "ok": "Input #0, mov,mp4,m4a,3gp,3g2,mj2, from 'C:\\Users\\Peter\\Desktop\\stuff\\MIUN\\quantitative_research\\video_compression\\videos\\BVI-HD\\BVI-HD_CDVL_videos\\ORIG\\TreeTrunk_1920x1080_50fps.mp4':\n  Metadata:\n    major_brand     : isom\n    minor_version   : 512\n    compatible_brands: isomiso2avc1mp41\n    encoder         : Lavf54.28.101\n  Duration: 00:00:05.00, start: 0.000000, bitrate: 622415 kb/s\n  Stream #0:0[0x1](und): Video: h264 (High 4:4:4 Predictive) (avc1 / 0x31637661), yuv420p(progressive), 1920x1080, 622410 kb/s, 50 fps, 50 tbr, 50 tbn (default)\n    Metadata:\n      handler_name    : VideoHandler\n      vendor_id       : [0][0][0][0]\n[out#0/mp4 @ 0000016f5dfa7d80] Codec AVOption b:a (set bitrate (in bits/s)) has not been used for any stream. The most likely reason is either wrong type (e.g. a video option with no video streams) or that it is a private option of some decoder which was not actually used for any stream.\nStream mapping:\n  Stream #0:0 -> #0:0 (h264 (native) -> hevc (libx265))\nPress [q] to stop, [?] for help\n[libx265 @ 0000016f5eb30b40] Unknown option: \"aq-mode.\nx265 [info]: HEVC encoder version 4.1+190-8f11c33ac\nx265 [info]: build info [Windows][GCC 15.1.0][64 bit] 10bit\nx265 [info]: using cpu capabilities: MMX2 SSE2Fast LZCNT SSSE3 SSE4.2 AVX FMA3 BMI2 AVX2\nx265 [info]: Main 10 profile, Level-4.1 (Main tier)\nx265 [info]: Thread pool created using 12 threads\nx265 [info]: Slices                              : 1\nx265 [info]: frame threads / pool features       : 3 / wpp(17 rows)\nx265 [info]: Coding QT: max CU size, min CU size : 64 / 8\nx265 [info]: Residual QT: max TU size, max depth : 32 / 1 inter / 1 intra\nx265 [info]: ME / range / subpel / merge         : star / 57 / 3 / 3\nx265 [info]: Keyframe min / max / scenecut / bias  : 25 / 250 / 40 / 5.00 \nx265 [info]: Lookahead / bframes / badapt        : 25 / 4 / 2\nx265 [info]: b-pyramid / weightp / weightb       : 1 / 1 / 0\nx265 [info]: References / ref-limit  cu / depth  : 4 / on / on\nx265 [info]: AQ: mode / str / qg-size / cu-tree  : 2 / 1.0 / 32 / 1\nx265 [info]: Rate Control / qCompress            : ABR-1500 kbps / 0.60\nx265 [info]: VBV/HRD buffer / max-rate / init    : 1500 / 1500 / 0.750\nx265 [info]: tools: rect limit-modes rd=4 psy-rd=2.00 rdoq=2 psy-rdoq=1.00\nx265 [info]: tools: rskip mode=1 signhide tmvp strong-intra-smoothing lslices=4\nx265 [info]: tools: deblock sao dhdr10-info\nOutput #0, mp4, to 'C:\\Users\\Peter\\Desktop\\stuff\\MIUN\\quantitative_research\\video_compression\\compressed_videos\\BVI-HD\\hevc\\1.5\\TreeTrunk_1920x1080_50fps_hevc.mp4':\n  Metadata:\n    major_brand     : isom\n    minor_version   : 512\n    compatible_brands: isomiso2avc1mp41\n    encoder         : Lavf62.3.100\n  Stream #0:0(und): Video: hevc (hev1 / 0x31766568), yuv420p10le(tv, progressive), 1920x1080, q=2-31, 1500 kb/s, 50 fps, 12800 tbn (default)\n    Metadata:\n      encoder         : Lavc62.11.100 libx265\n      handler_name    : VideoHandler\n      vendor_id       : [0][0][0][0]\n    Side data:\n      cpb: bitrate max/min/avg: 1500000/0/1500000 buffer size: 1500000 vbv_delay: N/A\nframe=    0 fps=0.0 q=0.0 size=       0KiB time=N/A bitrate=N/A speed=N/A elapsed=0:00:01.03    \nframe=    0 fps=0.0 q=0.0 size=       0KiB time=N/A bitrate=N/A speed=N/A elapsed=0:00:01.58    \nframe=    0 fps=0.0 q=0.0 size=       0KiB time=N/A bitrate=N/A speed=N/A elapsed=0:00:02.12    \nframe=    0 fps=0.0 q=0.0 size=       0KiB time=N/A bitrate=N/A speed=N/A elapsed=0:00:02.71    \nframe=    0 fps=0.0 q=0.0 size=       0KiB time=N/A bitrate=N/A speed=N/A elapsed=0:00:03.22    \nframe=    0 fps=0.0 q=0.0 size=       0KiB time=N/A bitrate=N/A speed=N/A elapsed=0:00:03.79    \nframe=    0 fps=0.0 q=0.0 size=       0KiB time=N/A bitrate=N/A speed=N/A elapsed=0:00:04.33    \nframe=    0 fps=0.0 q=0.0 size=       0KiB time=N/A bitrate=N/A speed=N/A elapsed=0:00:04.88    \nframe=    0 fps=0.0 q=0.0 size=       0KiB time=N/A bitrate=N/A speed=N/A elapsed=0:00:05.41    \nframe=    0 fps=0.0 q=0.0 size=       0KiB time=N/A bitrate=N/A speed=N/A elapsed=0:00:05.96    \nframe=    0 fps=0.0 q=0.0 size=       0KiB time=N/A bitrate=N/A speed=N/A elapsed=0:00:06.49    \nframe=    0 fps=0.0 q=0.0 size=       0KiB time=N/A bitrate=N/A speed=N/A elapsed=0:00:07.06    \nframe=    1 fps=0.1 q=43.6 size=       0KiB time=-00:00:00.02 bitrate=N/A speed=N/A elapsed=0:00:07.59    \nframe=    1 fps=0.1 q=43.6 size=       0KiB time=-00:00:00.02 bitrate=N/A speed=N/A elapsed=0:00:08.16    \nframe=    2 fps=0.2 q=51.0 size=       0KiB time=00:00:00.00 bitrate=N/A speed=   0x elapsed=0:00:08.70    \nframe=    4 fps=0.4 q=51.0 size=       0KiB time=00:00:00.04 bitrate=   8.8kbits/s speed=0.00431x elapsed=0:00:09.28    \nframe=    5 fps=0.5 q=51.0 size=       0KiB time=00:00:00.06 bitrate=   5.9kbits/s speed=0.00606x elapsed=0:00:09.89    \nframe=    6 fps=0.6 q=51.0 size=       0KiB time=00:00:00.08 bitrate=   4.4kbits/s speed=0.00753x elapsed=0:00:10.62    \nframe=    6 fps=0.5 q=51.0 size=       0KiB time=00:00:00.08 bitrate=   4.4kbits/s speed=0.00706x elapsed=0:00:11.33    \nframe=    6 fps=0.5 q=51.0 size=       0KiB time=00:00:00.08 bitrate=   4.4kbits/s speed=0.00673x elapsed=0:00:11.88    \nframe=    6 fps=0.5 q=51.0 size=       0KiB time=00:00:00.08 bitrate=   4.4kbits/s speed=0.00629x elapsed=0:00:12.71    \nframe=    6 fps=0.4 q=51.0 size=       0KiB time=00:00:00.08 bitrate=   4.4kbits/s speed=0.00599x elapsed=0:00:13.35    \nframe=    6 fps=0.4 q=51.0 size=       0KiB time=00:00:00.08 bitrate=   4.4kbits/s speed=0.00575x elapsed=0:00:13.91    \nframe=    7 fps=0.5 q=50.1 size=       0KiB time=00:00:00.10 bitrate=   3.5kbits/s speed=0.0069x elapsed=0:00:14.48    \nframe=    7 fps=0.5 q=50.1 size=       0KiB time=00:00:00.10 bitrate=   3.5kbits/s speed=0.00662x elapsed=0:00:15.10    \nframe=    8 fps=0.5 q=49.9 size=       0KiB time=00:00:00.12 bitrate=   2.9kbits/s speed=0.00767x elapsed=0:00:15.64    \nframe=    8 fps=0.5 q=49.9 size=       0KiB time=00:00:00.12 bitrate=   2.9kbits/s speed=0.00741x elapsed=0:00:16.19    \nframe=    8 fps=0.5 q=49.9 size=       0KiB time=00:00:00.12 bitrate=   2.9kbits/s speed=0.00714x elapsed=0:00:16.81    \nframe=    8 fps=0.5 q=49.9 size=       0KiB time=00:00:00.12 bitrate=   2.9kbits/s speed=0.0069x elapsed=0:00:17.40    \nframe=    8 fps=0.4 q=49.9 size=       0KiB time=00:00:00.12 bitrate=   2.9kbits/s speed=0.00668x elapsed=0:00:17.95    \nframe=    8 fps=0.4 q=49.9 size=       0KiB time=00:00:00.12 bitrate=   2.9kbits/s speed=0.00648x elapsed=0:00:18.50    \nframe=    9 fps=0.5 q=51.0 size=       0KiB time=00:00:00.12 bitrate=   2.9kbits/s speed=0.00624x elapsed=0:00:19.21    \nframe=    9 fps=0.5 q=51.0 size=       0KiB time=00:00:00.14 bitrate=   2.5kbits/s speed=0.00703x elapsed=0:00:19.90    \nframe=    9 fps=0.4 q=51.0 size=       0KiB time=00:00:00.14 bitrate=   2.5kbits/s speed=0.00684x elapsed=0:00:20.46    \nframe=    9 fps=0.4 q=51.0 size=       0KiB time=00:00:00.14 bitrate=   2.5kbits/s speed=0.00664x elapsed=0:00:21.06    \nframe=   10 fps=0.5 q=47.9 size=       0KiB time=00:00:00.16 bitrate=   2.2kbits/s speed=0.00738x elapsed=0:00:21.68    \nframe=   10 fps=0.4 q=47.9 size=       0KiB time=00:00:00.16 bitrate=   2.2kbits/s speed=0.00717x elapsed=0:00:22.30    \nframe=   11 fps=0.5 q=46.8 size=       0KiB time=00:00:00.18 bitrate=   2.0kbits/s speed=0.00788x elapsed=0:00:22.85    \nframe=   11 fps=0.5 q=46.8 size=       0KiB time=00:00:00.18 bitrate=   2.0kbits/s speed=0.00768x elapsed=0:00:23.43    \nframe=   11 fps=0.5 q=46.8 size=       0KiB time=00:00:00.18 bitrate=   2.0kbits/s speed=0.00749x elapsed=0:00:24.04    \nframe=   11 fps=0.4 q=46.8 size=       0KiB time=00:00:00.18 bitrate=   2.0kbits/s speed=0.00731x elapsed=0:00:24.61    \nframe=   12 fps=0.5 q=42.6 size=       0KiB time=00:00:00.20 bitrate=   1.8kbits/s speed=0.00796x elapsed=0:00:25.12    \nframe=   12 fps=0.5 q=42.6 size=       0KiB time=00:00:00.20 bitrate=   1.8kbits/s speed=0.00779x elapsed=0:00:25.67    \nframe=   12 fps=0.5 q=42.6 size=       0KiB time=00:00:00.20 bitrate=   1.8kbits/s speed=0.00761x elapsed=0:00:26.29    \nframe=   12 fps=0.4 q=42.6 size=       0KiB time=00:00:00.20 bitrate=   1.8kbits/s speed=0.00743x elapsed=0:00:26.90    \nframe=   13 fps=0.5 q=45.8 size=       0KiB time=00:00:00.22 bitrate=   1.6kbits/s speed=0.00802x elapsed=0:00:27.41    \nframe=   13 fps=0.5 q=45.8 size=       0KiB time=00:00:00.22 bitrate=   1.6kbits/s speed=0.00787x elapsed=0:00:27.96    \nframe=   14 fps=0.5 q=46.9 size=       0KiB time=00:00:00.24 bitrate=   1.5kbits/s speed=0.0084x elapsed=0:00:28.56    \nframe=   14 fps=0.5 q=46.9 size=       0KiB time=00:00:00.24 bitrate=   1.5kbits/s speed=0.00821x elapsed=0:00:29.21    \nframe=   14 fps=0.5 q=46.9 size=       0KiB time=00:00:00.24 bitrate=   1.5kbits/s speed=0.00807x elapsed=0:00:29.73    \nframe=   15 fps=0.5 q=45.9 size=       0KiB time=00:00:00.26 bitrate=   1.4kbits/s speed=0.00858x elapsed=0:00:30.31    \nframe=   15 fps=0.5 q=45.9 size=       0KiB time=00:00:00.26 bitrate=   1.4kbits/s speed=0.00838x elapsed=0:00:31.01    \nframe=   15 fps=0.5 q=45.9 size=       0KiB time=00:00:00.26 bitrate=   1.4kbits/s speed=0.00822x elapsed=0:00:31.62    \nframe=   15 fps=0.5 q=45.9 size=       0KiB time=00:00:00.26 bitrate=   1.4kbits/s speed=0.00808x elapsed=0:00:32.18    \nframe=   15 fps=0.5 q=45.9 size=       0KiB time=00:00:00.26 bitrate=   1.4kbits/s speed=0.00794x elapsed=0:00:32.75    \nframe=   16 fps=0.5 q=46.0 size=       0KiB time=00:00:00.28 bitrate=   1.3kbits/s speed=0.00839x elapsed=0:00:33.37    \nframe=   17 fps=0.5 q=40.9 size=       0KiB time=00:00:00.30 bitrate=   1.2kbits/s speed=0.00884x elapsed=0:00:33.95    \nframe=   17 fps=0.5 q=40.9 size=       0KiB time=00:00:00.30 bitrate=   1.2kbits/s speed=0.00869x elapsed=0:00:34.51    \nframe=   17 fps=0.5 q=40.9 size=       0KiB time=00:00:00.30 bitrate=   1.2kbits/s speed=0.00854x elapsed=0:00:35.13    \nframe=   17 fps=0.5 q=40.9 size=       0KiB time=00:00:00.30 bitrate=   1.2kbits/s speed=0.00841x elapsed=0:00:35.66    \nframe=   18 fps=0.5 q=47.0 size=       0KiB time=00:00:00.32 bitrate=   1.1kbits/s speed=0.00883x elapsed=0:00:36.22    \nframe=   18 fps=0.5 q=47.0 size=       0KiB time=00:00:00.32 bitrate=   1.1kbits/s speed=0.00868x elapsed=0:00:36.86    \nframe=   19 fps=0.5 q=46.0 size=       0KiB time=00:00:00.34 bitrate=   1.0kbits/s speed=0.00906x elapsed=0:00:37.53    \nframe=   19 fps=0.5 q=46.0 size=       0KiB time=00:00:00.34 bitrate=   1.0kbits/s speed=0.00893x elapsed=0:00:38.09    \nframe=   19 fps=0.5 q=46.0 size=       0KiB time=00:00:00.34 bitrate=   1.0kbits/s speed=0.00881x elapsed=0:00:38.60    \nframe=   19 fps=0.5 q=46.0 size=       0KiB time=00:00:00.34 bitrate=   1.0kbits/s speed=0.00868x elapsed=0:00:39.16    \nframe=   19 fps=0.5 q=46.0 size=       0KiB time=00:00:00.34 bitrate=   1.0kbits/s speed=0.00854x elapsed=0:00:39.78    \nframe=   19 fps=0.5 q=46.0 size=       0KiB time=00:00:00.34 bitrate=   1.0kbits/s speed=0.00843x elapsed=0:00:40.32    \nframe=   19 fps=0.5 q=46.0 size=       0KiB time=00:00:00.34 bitrate=   1.0kbits/s speed=0.00831x elapsed=0:00:40.91    \nframe=   20 fps=0.5 q=47.0 size=       0KiB time=00:00:00.36 bitrate=   1.0kbits/s speed=0.00869x elapsed=0:00:41.43    \nframe=   21 fps=0.5 q=47.0 size=       0KiB time=00:00:00.38 bitrate=   0.9kbits/s speed=0.00906x elapsed=0:00:41.95    \nframe=   22 fps=0.5 q=39.7 size=       0KiB time=00:00:00.40 bitrate=   0.9kbits/s speed=0.00941x elapsed=0:00:42.52    \nframe=   23 fps=0.5 q=48.0 size=       0KiB time=00:00:00.42 bitrate=   0.8kbits/s speed=0.00975x elapsed=0:00:43.09    \nframe=   23 fps=0.5 q=48.0 size=       0KiB time=00:00:00.42 bitrate=   0.8kbits/s speed=0.00962x elapsed=0:00:43.67    \nframe=   23 fps=0.5 q=48.0 size=       0KiB time=00:00:00.42 bitrate=   0.8kbits/s speed=0.00949x elapsed=0:00:44.23    \nframe=   24 fps=0.5 q=49.0 size=       0KiB time=00:00:00.44 bitrate=   0.8kbits/s speed=0.00982x elapsed=0:00:44.80    \nframe=   25 fps=0.6 q=49.0 size=       0KiB time=00:00:00.46 bitrate=   0.8kbits/s speed=0.0101x elapsed=0:00:45.38    \nframe=   26 fps=0.6 q=49.0 size=       0KiB time=00:00:00.48 bitrate=   0.7kbits/s speed=0.0104x elapsed=0:00:45.97    \nframe=   28 fps=0.6 q=47.0 size=       0KiB time=00:00:00.52 bitrate=   0.7kbits/s speed=0.0112x elapsed=0:00:46.53    \nframe=   28 fps=0.6 q=47.0 size=       0KiB time=00:00:00.52 bitrate=   0.7kbits/s speed=0.011x elapsed=0:00:47.10    \nframe=   28 fps=0.6 q=47.0 size=       0KiB time=00:00:00.52 bitrate=   0.7kbits/s speed=0.0109x elapsed=0:00:47.69    \nframe=   28 fps=0.6 q=47.0 size=       0KiB time=00:00:00.52 bitrate=   0.7kbits/s speed=0.0108x elapsed=0:00:48.31    \nframe=   29 fps=0.6 q=48.0 size=       0KiB time=00:00:00.54 bitrate=   0.7kbits/s speed=0.011x elapsed=0:00:48.94    \nframe=   29 fps=0.6 q=48.0 size=       0KiB time=00:00:00.54 bitrate=   0.7kbits/s speed=0.0109x elapsed=0:00:49.64    \nframe=   29 fps=0.6 q=48.0 size=       0KiB time=00:00:00.54 bitrate=   0.7kbits/s speed=0.0107x elapsed=0:00:50.30    \nframe=   29 fps=0.6 q=48.0 size=       0KiB time=00:00:00.54 bitrate=   0.7kbits/s speed=0.0106x elapsed=0:00:50.98    \nframe=   29 fps=0.6 q=48.0 size=       0KiB time=00:00:00.54 bitrate=   0.7kbits/s speed=0.0105x elapsed=0:00:51.65    \nframe=   29 fps=0.6 q=48.0 size=       0KiB time=00:00:00.54 bitrate=   0.7kbits/s speed=0.0103x elapsed=0:00:52.32    \nframe=   29 fps=0.5 q=48.0 size=       0KiB time=00:00:00.54 bitrate=   0.7kbits/s speed=0.0102x elapsed=0:00:52.98    \nframe=   29 fps=0.5 q=48.0 size=       0KiB time=00:00:00.54 bitrate=   0.7kbits/s speed=0.0101x elapsed=0:00:53.57    \nframe=   29 fps=0.5 q=48.0 size=       0KiB time=00:00:00.54 bitrate=   0.7kbits/s speed=0.00997x elapsed=0:00:54.14    \nframe=   29 fps=0.5 q=48.0 size=       0KiB time=00:00:00.54 bitrate=   0.7kbits/s speed=0.00987x elapsed=0:00:54.69    \nframe=   30 fps=0.5 q=46.0 size=       0KiB time=00:00:00.56 bitrate=   0.6kbits/s speed=0.0101x elapsed=0:00:55.25    \nframe=   31 fps=0.6 q=46.0 size=       0KiB time=00:00:00.58 bitrate=   0.6kbits/s speed=0.0104x elapsed=0:00:55.78    \nframe=   31 fps=0.6 q=46.0 size=       0KiB time=00:00:00.58 bitrate=   0.6kbits/s speed=0.0103x elapsed=0:00:56.34    \nframe=   31 fps=0.5 q=46.0 size=       0KiB time=00:00:00.58 bitrate=   0.6kbits/s speed=0.0102x elapsed=0:00:56.88    \nframe=   32 fps=0.6 q=38.6 size=       0KiB time=00:00:00.60 bitrate=   0.6kbits/s speed=0.0104x elapsed=0:00:57.47    \nframe=   32 fps=0.6 q=38.6 size=       0KiB time=00:00:00.60 bitrate=   0.6kbits/s speed=0.0103x elapsed=0:00:58.12    \nframe=   32 fps=0.5 q=38.6 size=       0KiB time=00:00:00.60 bitrate=   0.6kbits/s speed=0.0102x elapsed=0:00:58.68    \nframe=   33 fps=0.6 q=46.0 size=       0KiB time=00:00:00.62 bitrate=   0.6kbits/s speed=0.0105x elapsed=0:00:59.21    \nframe=   34 fps=0.6 q=46.0 size=       0KiB time=00:00:00.64 bitrate=   0.6kbits/s speed=0.0107x elapsed=0:00:59.78    \nframe=   37 fps=0.6 q=46.0 size=       0KiB time=00:00:00.70 bitrate=   0.5kbits/s speed=0.0116x elapsed=0:01:00.39    \nframe=   37 fps=0.6 q=46.0 size=       0KiB time=00:00:00.70 bitrate=   0.5kbits/s speed=0.0115x elapsed=0:01:00.92    \nframe=   37 fps=0.6 q=46.0 size=       0KiB time=00:00:00.70 bitrate=   0.5kbits/s speed=0.0114x elapsed=0:01:01.48    \nframe=   38 fps=0.6 q=45.0 size=       0KiB time=00:00:00.72 bitrate=   0.5kbits/s speed=0.0116x elapsed=0:01:02.05    \nframe=   38 fps=0.6 q=45.0 size=       0KiB time=00:00:00.72 bitrate=   0.5kbits/s speed=0.0115x elapsed=0:01:02.62    \nframe=   39 fps=0.6 q=45.0 size=       0KiB time=00:00:00.74 bitrate=   0.5kbits/s speed=0.0117x elapsed=0:01:03.15    \nframe=   40 fps=0.6 q=37.9 size=       0KiB time=00:00:00.76 bitrate=   0.5kbits/s speed=0.0119x elapsed=0:01:03.70    \nframe=   42 fps=0.7 q=46.0 size=       0KiB time=00:00:00.80 bitrate=   0.4kbits/s speed=0.0125x elapsed=0:01:04.23    \nframe=   42 fps=0.6 q=46.0 size=       0KiB time=00:00:00.80 bitrate=   0.4kbits/s speed=0.0124x elapsed=0:01:04.75    \nframe=   42 fps=0.6 q=46.0 size=       0KiB time=00:00:00.80 bitrate=   0.4kbits/s speed=0.0123x elapsed=0:01:05.27    \nframe=   42 fps=0.6 q=46.0 size=       0KiB time=00:00:00.80 bitrate=   0.4kbits/s speed=0.0122x elapsed=0:01:05.79    \nframe=   43 fps=0.6 q=45.0 size=       0KiB time=00:00:00.82 bitrate=   0.4kbits/s speed=0.0124x elapsed=0:01:06.31    \nframe=   43 fps=0.6 q=45.0 size=       0KiB time=00:00:00.82 bitrate=   0.4kbits/s speed=0.0123x elapsed=0:01:06.87    \nframe=   45 fps=0.7 q=37.4 size=       0KiB time=00:00:00.86 bitrate=   0.4kbits/s speed=0.0128x elapsed=0:01:07.41    \nframe=   46 fps=0.7 q=45.0 size=       0KiB time=00:00:00.88 bitrate=   0.4kbits/s speed=0.0129x elapsed=0:01:07.96    \nframe=   46 fps=0.7 q=45.0 size=       0KiB time=00:00:00.88 bitrate=   0.4kbits/s speed=0.0128x elapsed=0:01:08.50    \nframe=   46 fps=0.7 q=45.0 size=       0KiB time=00:00:00.88 bitrate=   0.4kbits/s speed=0.0127x elapsed=0:01:09.06    \nframe=   48 fps=0.7 q=45.0 size=       0KiB time=00:00:00.92 bitrate=   0.4kbits/s speed=0.0132x elapsed=0:01:09.58    \nframe=   49 fps=0.7 q=36.9 size=       0KiB time=00:00:00.94 bitrate=   0.4kbits/s speed=0.0134x elapsed=0:01:10.08    \nframe=   49 fps=0.7 q=36.9 size=       0KiB time=00:00:00.94 bitrate=   0.4kbits/s speed=0.0133x elapsed=0:01:10.66    \nframe=   50 fps=0.7 q=43.7 size=       0KiB time=00:00:00.96 bitrate=   0.4kbits/s speed=0.0135x elapsed=0:01:11.21    \nframe=   51 fps=0.7 q=45.0 size=       0KiB time=00:00:00.98 bitrate=   0.4kbits/s speed=0.0137x elapsed=0:01:11.73    \nframe=   51 fps=0.7 q=45.0 size=       0KiB time=00:00:00.98 bitrate=   0.4kbits/s speed=0.0136x elapsed=0:01:12.28    \nframe=   51 fps=0.7 q=45.0 size=       0KiB time=00:00:00.98 bitrate=   0.4kbits/s speed=0.0135x elapsed=0:01:12.81    \nframe=   52 fps=0.7 q=44.0 size=       0KiB time=00:00:01.00 bitrate=   0.4kbits/s speed=0.0136x elapsed=0:01:13.35    \nframe=   53 fps=0.7 q=44.0 size=       0KiB time=00:00:01.02 bitrate=   0.3kbits/s speed=0.0138x elapsed=0:01:13.87    \nframe=   53 fps=0.7 q=44.0 size=       0KiB time=00:00:01.02 bitrate=   0.3kbits/s speed=0.0137x elapsed=0:01:14.47    \nframe=   53 fps=0.7 q=44.0 size=       0KiB time=00:00:01.02 bitrate=   0.3kbits/s speed=0.0136x elapsed=0:01:15.03    \nframe=   54 fps=0.7 q=36.6 size=       0KiB time=00:00:01.04 bitrate=   0.3kbits/s speed=0.0138x elapsed=0:01:15.61    \nframe=   55 fps=0.7 q=44.0 size=       0KiB time=00:00:01.06 bitrate=   0.3kbits/s speed=0.0139x elapsed=0:01:16.19    \nframe=   55 fps=0.7 q=44.0 size=       0KiB time=00:00:01.06 bitrate=   0.3kbits/s speed=0.0138x elapsed=0:01:16.75    \nframe=   55 fps=0.7 q=44.0 size=       0KiB time=00:00:01.06 bitrate=   0.3kbits/s speed=0.0137x elapsed=0:01:17.26    \nframe=   56 fps=0.7 q=44.0 size=       0KiB time=00:00:01.08 bitrate=   0.3kbits/s speed=0.0139x elapsed=0:01:17.79    \nframe=   56 fps=0.7 q=44.0 size=       0KiB time=00:00:01.08 bitrate=   0.3kbits/s speed=0.0138x elapsed=0:01:18.34    \nframe=   56 fps=0.7 q=44.0 size=       0KiB time=00:00:01.08 bitrate=   0.3kbits/s speed=0.0137x elapsed=0:01:18.89    \nframe=   56 fps=0.7 q=44.0 size=       0KiB time=00:00:01.08 bitrate=   0.3kbits/s speed=0.0136x elapsed=0:01:19.40    \nframe=   57 fps=0.7 q=44.0 size=       0KiB time=00:00:01.10 bitrate=   0.3kbits/s speed=0.0138x elapsed=0:01:19.91    \nframe=   58 fps=0.7 q=44.0 size=       0KiB time=00:00:01.12 bitrate=   0.3kbits/s speed=0.0139x elapsed=0:01:20.43    \nframe=   59 fps=0.7 q=36.3 size=       0KiB time=00:00:01.14 bitrate=   0.3kbits/s speed=0.0141x elapsed=0:01:20.97    \nframe=   59 fps=0.7 q=36.3 size=       0KiB time=00:00:01.14 bitrate=   0.3kbits/s speed=0.014x elapsed=0:01:21.54    \nframe=   61 fps=0.7 q=45.0 size=       0KiB time=00:00:01.18 bitrate=   0.3kbits/s speed=0.0144x elapsed=0:01:22.10    \nframe=   62 fps=0.8 q=44.0 size=       0KiB time=00:00:01.20 bitrate=   0.3kbits/s speed=0.0145x elapsed=0:01:22.62    \nframe=   64 fps=0.8 q=35.7 size=       0KiB time=00:00:01.24 bitrate=   0.3kbits/s speed=0.0149x elapsed=0:01:23.16    \nframe=   64 fps=0.8 q=35.7 size=       0KiB time=00:00:01.24 bitrate=   0.3kbits/s speed=0.0148x elapsed=0:01:23.69    \nframe=   65 fps=0.8 q=43.0 size=       0KiB time=00:00:01.26 bitrate=   0.3kbits/s speed=0.015x elapsed=0:01:24.22    \nframe=   66 fps=0.8 q=44.0 size=       0KiB time=00:00:01.28 bitrate=   0.3kbits/s speed=0.0151x elapsed=0:01:24.74    \nframe=   67 fps=0.8 q=43.0 size=       0KiB time=00:00:01.30 bitrate=   0.3kbits/s speed=0.0152x elapsed=0:01:25.27    \nframe=   67 fps=0.8 q=43.0 size=       0KiB time=00:00:01.30 bitrate=   0.3kbits/s speed=0.0151x elapsed=0:01:25.81    \nframe=   67 fps=0.8 q=43.0 size=       0KiB time=00:00:01.30 bitrate=   0.3kbits/s speed=0.0151x elapsed=0:01:26.33    \nframe=   68 fps=0.8 q=43.0 size=       0KiB time=00:00:01.32 bitrate=   0.3kbits/s speed=0.0152x elapsed=0:01:26.86    \nframe=   69 fps=0.8 q=35.1 size=       0KiB time=00:00:01.34 bitrate=   0.3kbits/s speed=0.0153x elapsed=0:01:27.42    \nframe=   70 fps=0.8 q=42.0 size=       0KiB time=00:00:01.36 bitrate=   0.3kbits/s speed=0.0155x elapsed=0:01:27.96    \nframe=   70 fps=0.8 q=42.0 size=       0KiB time=00:00:01.36 bitrate=   0.3kbits/s speed=0.0154x elapsed=0:01:28.53    \nframe=   72 fps=0.8 q=43.0 size=       0KiB time=00:00:01.40 bitrate=   0.3kbits/s speed=0.0157x elapsed=0:01:29.08    \nframe=   72 fps=0.8 q=43.0 size=       0KiB time=00:00:01.40 bitrate=   0.3kbits/s speed=0.0156x elapsed=0:01:29.62    \nframe=   73 fps=0.8 q=43.0 size=       0KiB time=00:00:01.42 bitrate=   0.2kbits/s speed=0.0157x elapsed=0:01:30.20    \nframe=   74 fps=0.8 q=35.2 size=       0KiB time=00:00:01.44 bitrate=   0.2kbits/s speed=0.0159x elapsed=0:01:30.77    \nframe=   75 fps=0.8 q=42.0 size=       0KiB time=00:00:01.46 bitrate=   0.2kbits/s speed=0.016x elapsed=0:01:31.30    \nframe=   76 fps=0.8 q=43.0 size=       0KiB time=00:00:01.48 bitrate=   0.2kbits/s speed=0.0161x elapsed=0:01:31.86    \nframe=   76 fps=0.8 q=43.0 size=       0KiB time=00:00:01.48 bitrate=   0.2kbits/s speed=0.016x elapsed=0:01:32.48    \nframe=   77 fps=0.8 q=43.0 size=       0KiB time=00:00:01.50 bitrate=   0.2kbits/s speed=0.0161x elapsed=0:01:33.04    \nframe=   78 fps=0.8 q=43.0 size=       0KiB time=00:00:01.52 bitrate=   0.2kbits/s speed=0.0162x elapsed=0:01:33.56    \nframe=   78 fps=0.8 q=43.0 size=       0KiB time=00:00:01.52 bitrate=   0.2kbits/s speed=0.0162x elapsed=0:01:34.08    \nframe=   78 fps=0.8 q=43.0 size=       0KiB time=00:00:01.52 bitrate=   0.2kbits/s speed=0.0161x elapsed=0:01:34.62    \nframe=   78 fps=0.8 q=43.0 size=       0KiB time=00:00:01.52 bitrate=   0.2kbits/s speed=0.016x elapsed=0:01:35.16    \nframe=   80 fps=0.8 q=42.0 size=     256KiB time=00:00:01.56 bitrate=1344.6kbits/s speed=0.0163x elapsed=0:01:35.71    \nframe=   80 fps=0.8 q=42.0 size=     256KiB time=00:00:01.56 bitrate=1344.6kbits/s speed=0.0162x elapsed=0:01:36.27    \nframe=   80 fps=0.8 q=42.0 size=     256KiB time=00:00:01.56 bitrate=1344.6kbits/s speed=0.0161x elapsed=0:01:36.94    \nframe=   80 fps=0.8 q=42.0 size=     256KiB time=00:00:01.56 bitrate=1344.6kbits/s speed=0.016x elapsed=0:01:37.56    \nframe=   81 fps=0.8 q=43.0 size=     256KiB time=00:00:01.58 bitrate=1327.5kbits/s speed=0.0161x elapsed=0:01:38.18    \nframe=   81 fps=0.8 q=43.0 size=     256KiB time=00:00:01.58 bitrate=1327.5kbits/s speed=0.016x elapsed=0:01:38.72    \nframe=   81 fps=0.8 q=43.0 size=     256KiB time=00:00:01.58 bitrate=1327.5kbits/s speed=0.0159x elapsed=0:01:39.23    \nframe=   81 fps=0.8 q=43.0 size=     256KiB time=00:00:01.58 bitrate=1327.5kbits/s speed=0.0158x elapsed=0:01:39.78    \nframe=   81 fps=0.8 q=43.0 size=     256KiB time=00:00:01.58 bitrate=1327.5kbits/s speed=0.0157x elapsed=0:01:40.33    \nframe=   81 fps=0.8 q=43.0 size=     256KiB time=00:00:01.58 bitrate=1327.5kbits/s speed=0.0157x elapsed=0:01:40.91    \nframe=   81 fps=0.8 q=43.0 size=     256KiB time=00:00:01.58 bitrate=1327.5kbits/s speed=0.0156x elapsed=0:01:41.45    \nframe=   81 fps=0.8 q=43.0 size=     256KiB time=00:00:01.58 bitrate=1327.5kbits/s speed=0.0155x elapsed=0:01:42.04    \nframe=   81 fps=0.8 q=43.0 size=     256KiB time=00:00:01.58 bitrate=1327.5kbits/s speed=0.0154x elapsed=0:01:42.66    \nframe=   82 fps=0.8 q=43.0 size=     256KiB time=00:00:01.60 bitrate=1310.9kbits/s speed=0.0155x elapsed=0:01:43.24    \nframe=   83 fps=0.8 q=43.0 size=     256KiB time=00:00:01.62 bitrate=1294.8kbits/s speed=0.0156x elapsed=0:01:43.82    \nframe=   83 fps=0.8 q=43.0 size=     256KiB time=00:00:01.62 bitrate=1294.8kbits/s speed=0.0155x elapsed=0:01:44.34    \nframe=   84 fps=0.8 q=35.2 size=     256KiB time=00:00:01.64 bitrate=1279.0kbits/s speed=0.0156x elapsed=0:01:44.92    \nframe=   84 fps=0.8 q=35.2 size=     256KiB time=00:00:01.64 bitrate=1279.0kbits/s speed=0.0155x elapsed=0:01:45.58    \nframe=   85 fps=0.8 q=42.0 size=     256KiB time=00:00:01.66 bitrate=1263.6kbits/s speed=0.0156x elapsed=0:01:46.17    \nframe=   86 fps=0.8 q=43.0 size=     256KiB time=00:00:01.68 bitrate=1248.5kbits/s speed=0.0157x elapsed=0:01:46.68    \nframe=   87 fps=0.8 q=43.0 size=     256KiB time=00:00:01.70 bitrate=1233.8kbits/s speed=0.0159x elapsed=0:01:47.23    \nframe=   87 fps=0.8 q=43.0 size=     256KiB time=00:00:01.70 bitrate=1233.8kbits/s speed=0.0158x elapsed=0:01:47.80    \nframe=   87 fps=0.8 q=43.0 size=     256KiB time=00:00:01.70 bitrate=1233.8kbits/s speed=0.0157x elapsed=0:01:48.38    \nframe=   88 fps=0.8 q=43.0 size=     256KiB time=00:00:01.72 bitrate=1219.5kbits/s speed=0.0158x elapsed=0:01:48.88    \nframe=   89 fps=0.8 q=37.0 size=     256KiB time=00:00:01.74 bitrate=1205.5kbits/s speed=0.0159x elapsed=0:01:49.41    \nframe=   89 fps=0.8 q=37.0 size=     256KiB time=00:00:01.74 bitrate=1205.5kbits/s speed=0.0158x elapsed=0:01:49.96    \nframe=   90 fps=0.8 q=42.0 size=     256KiB time=00:00:01.76 bitrate=1191.8kbits/s speed=0.0159x elapsed=0:01:50.48    \nframe=   90 fps=0.8 q=42.0 size=     256KiB time=00:00:01.76 bitrate=1191.8kbits/s speed=0.0159x elapsed=0:01:51.00    \nframe=   91 fps=0.8 q=43.0 size=     256KiB time=00:00:01.78 bitrate=1178.4kbits/s speed=0.016x elapsed=0:01:51.52    \nframe=   91 fps=0.8 q=43.0 size=     256KiB time=00:00:01.78 bitrate=1178.4kbits/s speed=0.0159x elapsed=0:01:52.08    \nframe=   93 fps=0.8 q=35.0 size=     256KiB time=00:00:01.82 bitrate=1152.5kbits/s speed=0.0162x elapsed=0:01:52.61    \nframe=   95 fps=0.8 q=43.0 size=     256KiB time=00:00:01.86 bitrate=1127.7kbits/s speed=0.0164x elapsed=0:01:53.14    \nframe=   95 fps=0.8 q=43.0 size=     256KiB time=00:00:01.86 bitrate=1127.7kbits/s speed=0.0164x elapsed=0:01:53.70    \nframe=   95 fps=0.8 q=43.0 size=     256KiB time=00:00:01.86 bitrate=1127.7kbits/s speed=0.0163x elapsed=0:01:54.24    \nframe=   97 fps=0.8 q=36.2 size=     256KiB time=00:00:01.90 bitrate=1103.9kbits/s speed=0.0166x elapsed=0:01:54.76    \nframe=   98 fps=0.8 q=43.0 size=     256KiB time=00:00:01.92 bitrate=1092.5kbits/s speed=0.0167x elapsed=0:01:55.30    \nframe=   98 fps=0.8 q=43.0 size=     256KiB time=00:00:01.92 bitrate=1092.5kbits/s speed=0.0166x elapsed=0:01:55.83    \nframe=   98 fps=0.8 q=43.0 size=     256KiB time=00:00:01.92 bitrate=1092.5kbits/s speed=0.0165x elapsed=0:01:56.36    \nframe=  100 fps=0.9 q=43.0 size=     256KiB time=00:00:01.96 bitrate=1070.2kbits/s speed=0.0168x elapsed=0:01:56.89    \nframe=  100 fps=0.9 q=43.0 size=     256KiB time=00:00:01.96 bitrate=1070.2kbits/s speed=0.0167x elapsed=0:01:57.46    \nframe=  101 fps=0.9 q=35.5 size=     256KiB time=00:00:01.98 bitrate=1059.3kbits/s speed=0.0168x elapsed=0:01:57.98    \nframe=  101 fps=0.9 q=35.5 size=     256KiB time=00:00:01.98 bitrate=1059.3kbits/s speed=0.0167x elapsed=0:01:58.49    \nframe=  101 fps=0.8 q=35.5 size=     256KiB time=00:00:01.98 bitrate=1059.3kbits/s speed=0.0166x elapsed=0:01:59.07    \nframe=  104 fps=0.9 q=43.0 size=     256KiB time=00:00:02.04 bitrate=1028.2kbits/s speed=0.0171x elapsed=0:01:59.64    \nframe=  105 fps=0.9 q=43.0 size=     256KiB time=00:00:02.06 bitrate=1018.2kbits/s speed=0.0171x elapsed=0:02:00.15    \nframe=  105 fps=0.9 q=43.0 size=     256KiB time=00:00:02.06 bitrate=1018.2kbits/s speed=0.0171x elapsed=0:02:00.68    \nframe=  108 fps=0.9 q=43.0 size=     256KiB time=00:00:02.12 bitrate= 989.4kbits/s speed=0.0175x elapsed=0:02:01.21    \nframe=  109 fps=0.9 q=42.9 size=     256KiB time=00:00:02.14 bitrate= 980.1kbits/s speed=0.0176x elapsed=0:02:01.73    \nframe=  109 fps=0.9 q=42.9 size=     256KiB time=00:00:02.14 bitrate= 980.1kbits/s speed=0.0175x elapsed=0:02:02.25    \nframe=  110 fps=0.9 q=43.0 size=     256KiB time=00:00:02.16 bitrate= 971.1kbits/s speed=0.0176x elapsed=0:02:02.76    \nframe=  111 fps=0.9 q=34.6 size=     256KiB time=00:00:02.18 bitrate= 962.2kbits/s speed=0.0177x elapsed=0:02:03.28    \nframe=  112 fps=0.9 q=41.8 size=     256KiB time=00:00:02.20 bitrate= 953.4kbits/s speed=0.0178x elapsed=0:02:03.80    \nframe=  112 fps=0.9 q=41.8 size=     256KiB time=00:00:02.20 bitrate= 953.4kbits/s speed=0.0177x elapsed=0:02:04.38    \nframe=  113 fps=0.9 q=43.0 size=     256KiB time=00:00:02.22 bitrate= 944.8kbits/s speed=0.0178x elapsed=0:02:04.90    \nframe=  113 fps=0.9 q=43.0 size=     256KiB time=00:00:02.22 bitrate= 944.8kbits/s speed=0.0177x elapsed=0:02:05.44    \nframe=  115 fps=0.9 q=41.9 size=     256KiB time=00:00:02.26 bitrate= 928.1kbits/s speed=0.0179x elapsed=0:02:06.00    \nframe=  117 fps=0.9 q=41.0 size=     256KiB time=00:00:02.30 bitrate= 912.0kbits/s speed=0.0182x elapsed=0:02:06.53    \nframe=  118 fps=0.9 q=41.9 size=     256KiB time=00:00:02.32 bitrate= 904.1kbits/s speed=0.0183x elapsed=0:02:07.04    \nframe=  119 fps=0.9 q=42.0 size=     256KiB time=00:00:02.34 bitrate= 896.4kbits/s speed=0.0183x elapsed=0:02:07.55    \nframe=  119 fps=0.9 q=42.0 size=     256KiB time=00:00:02.34 bitrate= 896.4kbits/s speed=0.0183x elapsed=0:02:08.08    \nframe=  119 fps=0.9 q=42.0 size=     256KiB time=00:00:02.34 bitrate= 896.4kbits/s speed=0.0182x elapsed=0:02:08.60    \nframe=  120 fps=0.9 q=42.0 size=     256KiB time=00:00:02.36 bitrate= 888.8kbits/s speed=0.0183x elapsed=0:02:09.13    \nframe=  120 fps=0.9 q=42.0 size=     256KiB time=00:00:02.36 bitrate= 888.8kbits/s speed=0.0182x elapsed=0:02:09.66    \nframe=  120 fps=0.9 q=42.0 size=     256KiB time=00:00:02.36 bitrate= 888.8kbits/s speed=0.0181x elapsed=0:02:10.22    \nframe=  120 fps=0.9 q=42.0 size=     256KiB time=00:00:02.36 bitrate= 888.8kbits/s speed=0.018x elapsed=0:02:10.84    \nframe=  120 fps=0.9 q=42.0 size=     256KiB time=00:00:02.36 bitrate= 888.8kbits/s speed=0.018x elapsed=0:02:11.41    \nframe=  122 fps=0.9 q=41.0 size=     256KiB time=00:00:02.40 bitrate= 874.0kbits/s speed=0.0182x elapsed=0:02:11.96    \nframe=  122 fps=0.9 q=41.0 size=     256KiB time=00:00:02.40 bitrate= 874.0kbits/s speed=0.0181x elapsed=0:02:12.56    \nframe=  122 fps=0.9 q=41.0 size=     256KiB time=00:00:02.40 bitrate= 874.0kbits/s speed=0.018x elapsed=0:02:13.22    \nframe=  122 fps=0.9 q=41.0 size=     256KiB time=00:00:02.40 bitrate= 874.0kbits/s speed=0.0179x elapsed=0:02:13.80    \nframe=  122 fps=0.9 q=41.0 size=     256KiB time=00:00:02.40 bitrate= 874.0kbits/s speed=0.0178x elapsed=0:02:14.47    \nframe=  123 fps=0.9 q=42.0 size=     256KiB time=00:00:02.42 bitrate= 866.7kbits/s speed=0.0179x elapsed=0:02:15.02    \nframe=  123 fps=0.9 q=42.0 size=     256KiB time=00:00:02.42 bitrate= 866.7kbits/s speed=0.0179x elapsed=0:02:15.52    \nframe=  125 fps=0.9 q=41.9 size=     256KiB time=00:00:02.46 bitrate= 852.6kbits/s speed=0.0181x elapsed=0:02:16.06    \nframe=  125 fps=0.9 q=41.9 size=     256KiB time=00:00:02.46 bitrate= 852.6kbits/s speed=0.018x elapsed=0:02:16.60    \nframe=  127 fps=0.9 q=42.0 size=     256KiB time=00:00:02.48 bitrate= 845.8kbits/s speed=0.0181x elapsed=0:02:17.18    \nframe=  127 fps=0.9 q=42.0 size=     256KiB time=00:00:02.50 bitrate= 839.0kbits/s speed=0.0181x elapsed=0:02:17.82    \nframe=  127 fps=0.9 q=42.0 size=     256KiB time=00:00:02.50 bitrate= 839.0kbits/s speed=0.0181x elapsed=0:02:18.35    \nframe=  127 fps=0.9 q=42.0 size=     256KiB time=00:00:02.50 bitrate= 839.0kbits/s speed=0.018x elapsed=0:02:18.88    \nframe=  127 fps=0.9 q=42.0 size=     256KiB time=00:00:02.50 bitrate= 839.0kbits/s speed=0.0179x elapsed=0:02:19.44    \nframe=  127 fps=0.9 q=42.0 size=     256KiB time=00:00:02.50 bitrate= 839.0kbits/s speed=0.0179x elapsed=0:02:20.05    \nframe=  128 fps=0.9 q=43.0 size=     256KiB time=00:00:02.52 bitrate= 832.3kbits/s speed=0.0179x elapsed=0:02:20.66    \nframe=  129 fps=0.9 q=43.0 size=     256KiB time=00:00:02.54 bitrate= 825.8kbits/s speed=0.018x elapsed=0:02:21.28    \nframe=  130 fps=0.9 q=43.0 size=     256KiB time=00:00:02.56 bitrate= 819.3kbits/s speed=0.018x elapsed=0:02:21.89    \nframe=  130 fps=0.9 q=43.0 size=     256KiB time=00:00:02.56 bitrate= 819.3kbits/s speed=0.018x elapsed=0:02:22.60    \nframe=  130 fps=0.9 q=43.0 size=     256KiB time=00:00:02.56 bitrate= 819.3kbits/s speed=0.0179x elapsed=0:02:23.30    \nframe=  131 fps=0.9 q=34.1 size=     256KiB time=00:00:02.58 bitrate= 813.0kbits/s speed=0.0179x elapsed=0:02:23.86    \nframe=  131 fps=0.9 q=34.1 size=     256KiB time=00:00:02.58 bitrate= 813.0kbits/s speed=0.0179x elapsed=0:02:24.46    \nframe=  131 fps=0.9 q=34.1 size=     256KiB time=00:00:02.58 bitrate= 813.0kbits/s speed=0.0178x elapsed=0:02:25.11    \nframe=  134 fps=0.9 q=41.0 size=     256KiB time=00:00:02.64 bitrate= 794.5kbits/s speed=0.0181x elapsed=0:02:25.77    \nframe=  134 fps=0.9 q=41.0 size=     256KiB time=00:00:02.64 bitrate= 794.5kbits/s speed=0.018x elapsed=0:02:26.34    \nframe=  134 fps=0.9 q=41.0 size=     256KiB time=00:00:02.64 bitrate= 794.5kbits/s speed=0.018x elapsed=0:02:26.87    \nframe=  134 fps=0.9 q=41.0 size=     256KiB time=00:00:02.64 bitrate= 794.5kbits/s speed=0.0179x elapsed=0:02:27.53    \nframe=  135 fps=0.9 q=41.0 size=     256KiB time=00:00:02.66 bitrate= 788.5kbits/s speed=0.018x elapsed=0:02:28.15    \nframe=  137 fps=0.9 q=40.0 size=     256KiB time=00:00:02.70 bitrate= 776.9kbits/s speed=0.0182x elapsed=0:02:28.74    \nframe=  137 fps=0.9 q=40.0 size=     256KiB time=00:00:02.70 bitrate= 776.9kbits/s speed=0.0181x elapsed=0:02:29.37    \nframe=  137 fps=0.9 q=40.0 size=     256KiB time=00:00:02.70 bitrate= 776.9kbits/s speed=0.018x elapsed=0:02:29.94    \nframe=  138 fps=0.9 q=42.0 size=     256KiB time=00:00:02.72 bitrate= 771.1kbits/s speed=0.0181x elapsed=0:02:30.68    \nframe=  139 fps=0.9 q=41.0 size=     256KiB time=00:00:02.74 bitrate= 765.5kbits/s speed=0.0181x elapsed=0:02:31.29    \nframe=  139 fps=0.9 q=41.0 size=     256KiB time=00:00:02.74 bitrate= 765.5kbits/s speed=0.018x elapsed=0:02:31.89    \nframe=  140 fps=0.9 q=33.4 size=     256KiB time=00:00:02.76 bitrate= 760.0kbits/s speed=0.0181x elapsed=0:02:32.61    \nframe=  141 fps=0.9 q=39.9 size=     256KiB time=00:00:02.78 bitrate= 754.5kbits/s speed=0.0182x elapsed=0:02:33.16    \nframe=  141 fps=0.9 q=39.9 size=     256KiB time=00:00:02.78 bitrate= 754.5kbits/s speed=0.0181x elapsed=0:02:33.71    \nframe=  141 fps=0.9 q=39.9 size=     256KiB time=00:00:02.78 bitrate= 754.5kbits/s speed=0.018x elapsed=0:02:34.38    \nframe=  141 fps=0.9 q=39.9 size=     256KiB time=00:00:02.78 bitrate= 754.5kbits/s speed=0.0179x elapsed=0:02:35.10    \nframe=  143 fps=0.9 q=41.0 size=     256KiB time=00:00:02.82 bitrate= 743.8kbits/s speed=0.0181x elapsed=0:02:35.64    \nframe=  143 fps=0.9 q=41.0 size=     256KiB time=00:00:02.82 bitrate= 743.8kbits/s speed=0.018x elapsed=0:02:36.24    \nframe=  143 fps=0.9 q=41.0 size=     256KiB time=00:00:02.82 bitrate= 743.8kbits/s speed=0.018x elapsed=0:02:36.92    \nframe=  143 fps=0.9 q=41.0 size=     256KiB time=00:00:02.82 bitrate= 743.8kbits/s speed=0.0179x elapsed=0:02:37.53    \nframe=  143 fps=0.9 q=41.0 size=     256KiB time=00:00:02.82 bitrate= 743.8kbits/s speed=0.0178x elapsed=0:02:38.11    \nframe=  144 fps=0.9 q=41.0 size=     256KiB time=00:00:02.84 bitrate= 738.6kbits/s speed=0.0179x elapsed=0:02:38.64    \nframe=  145 fps=0.9 q=33.4 size=     256KiB time=00:00:02.86 bitrate= 733.4kbits/s speed=0.018x elapsed=0:02:39.33    \nframe=  145 fps=0.9 q=33.4 size=     256KiB time=00:00:02.86 bitrate= 733.4kbits/s speed=0.0179x elapsed=0:02:39.92    \nframe=  146 fps=0.9 q=40.0 size=     256KiB time=00:00:02.86 bitrate= 733.4kbits/s speed=0.0178x elapsed=0:02:40.44    \nframe=  146 fps=0.9 q=40.0 size=     256KiB time=00:00:02.88 bitrate= 728.3kbits/s speed=0.0179x elapsed=0:02:41.10    \nframe=  146 fps=0.9 q=40.0 size=     256KiB time=00:00:02.88 bitrate= 728.3kbits/s speed=0.0178x elapsed=0:02:41.72    \nframe=  146 fps=0.9 q=40.0 size=     256KiB time=00:00:02.88 bitrate= 728.3kbits/s speed=0.0177x elapsed=0:02:42.28    \nframe=  146 fps=0.9 q=40.0 size=     256KiB time=00:00:02.88 bitrate= 728.3kbits/s speed=0.0177x elapsed=0:02:42.87    \nframe=  146 fps=0.9 q=40.0 size=     256KiB time=00:00:02.88 bitrate= 728.3kbits/s speed=0.0176x elapsed=0:02:43.42    \nframe=  147 fps=0.9 q=41.0 size=     256KiB time=00:00:02.90 bitrate= 723.3kbits/s speed=0.0177x elapsed=0:02:44.02    \nframe=  148 fps=0.9 q=40.9 size=     256KiB time=00:00:02.92 bitrate= 718.3kbits/s speed=0.0177x elapsed=0:02:44.68    \nframe=  150 fps=0.9 q=39.7 size=     512KiB time=00:00:02.94 bitrate=1426.8kbits/s speed=0.0178x elapsed=0:02:45.35    \nframe=  152 fps=0.9 q=41.0 size=     512KiB time=00:00:02.98 bitrate=1407.6kbits/s speed=0.018x elapsed=0:02:46.01    \nframe=  153 fps=0.9 q=41.0 size=     512KiB time=00:00:03.02 bitrate=1389.0kbits/s speed=0.0181x elapsed=0:02:46.63    \nframe=  153 fps=0.9 q=41.0 size=     512KiB time=00:00:03.02 bitrate=1389.0kbits/s speed=0.0181x elapsed=0:02:47.23    \nframe=  153 fps=0.9 q=41.0 size=     512KiB time=00:00:03.02 bitrate=1389.0kbits/s speed=0.018x elapsed=0:02:47.84    \nframe=  153 fps=0.9 q=41.0 size=     512KiB time=00:00:03.02 bitrate=1389.0kbits/s speed=0.0179x elapsed=0:02:48.41    \nframe=  153 fps=0.9 q=41.0 size=     512KiB time=00:00:03.02 bitrate=1389.0kbits/s speed=0.0179x elapsed=0:02:49.05    \nframe=  154 fps=0.9 q=34.5 size=     512KiB time=00:00:03.04 bitrate=1379.8kbits/s speed=0.0179x elapsed=0:02:49.64    \nframe=  155 fps=0.9 q=37.3 size=     512KiB time=00:00:03.06 bitrate=1370.8kbits/s speed=0.018x elapsed=0:02:50.15    \nframe=  156 fps=0.9 q=42.0 size=     512KiB time=00:00:03.08 bitrate=1361.9kbits/s speed=0.018x elapsed=0:02:50.73    \nframe=  156 fps=0.9 q=42.0 size=     512KiB time=00:00:03.08 bitrate=1361.9kbits/s speed=0.018x elapsed=0:02:51.32    \nframe=  156 fps=0.9 q=42.0 size=     512KiB time=00:00:03.08 bitrate=1361.9kbits/s speed=0.0179x elapsed=0:02:51.87    \nframe=  157 fps=0.9 q=40.9 size=     512KiB time=00:00:03.10 bitrate=1353.1kbits/s speed=0.018x elapsed=0:02:52.51    \nframe=  157 fps=0.9 q=40.9 size=     512KiB time=00:00:03.10 bitrate=1353.1kbits/s speed=0.0179x elapsed=0:02:53.15    \nframe=  158 fps=0.9 q=41.0 size=     512KiB time=00:00:03.12 bitrate=1344.4kbits/s speed=0.018x elapsed=0:02:53.75    \nframe=  158 fps=0.9 q=41.0 size=     512KiB time=00:00:03.12 bitrate=1344.4kbits/s speed=0.0179x elapsed=0:02:54.40    \nframe=  158 fps=0.9 q=41.0 size=     512KiB time=00:00:03.12 bitrate=1344.4kbits/s speed=0.0178x elapsed=0:02:55.18    \nframe=  158 fps=0.9 q=41.0 size=     512KiB time=00:00:03.12 bitrate=1344.4kbits/s speed=0.0177x elapsed=0:02:55.90    \nframe=  158 fps=0.9 q=41.0 size=     512KiB time=00:00:03.12 bitrate=1344.4kbits/s speed=0.0177x elapsed=0:02:56.52    \nframe=  158 fps=0.9 q=41.0 size=     512KiB time=00:00:03.12 bitrate=1344.4kbits/s speed=0.0176x elapsed=0:02:57.18    \nframe=  158 fps=0.9 q=41.0 size=     512KiB time=00:00:03.12 bitrate=1344.4kbits/s speed=0.0175x elapsed=0:02:57.84    \nframe=  158 fps=0.9 q=41.0 size=     512KiB time=00:00:03.12 bitrate=1344.4kbits/s speed=0.0175x elapsed=0:02:58.48    \nframe=  158 fps=0.9 q=41.0 size=     512KiB time=00:00:03.12 bitrate=1344.4kbits/s speed=0.0174x elapsed=0:02:59.23    \nframe=  158 fps=0.9 q=41.0 size=     512KiB time=00:00:03.12 bitrate=1344.4kbits/s speed=0.0173x elapsed=0:02:59.96    \nframe=  158 fps=0.9 q=41.0 size=     512KiB time=00:00:03.12 bitrate=1344.4kbits/s speed=0.0173x elapsed=0:03:00.71    \nframe=  161 fps=0.9 q=40.9 size=     512KiB time=00:00:03.18 bitrate=1319.1kbits/s speed=0.0175x elapsed=0:03:01.37    \nframe=  161 fps=0.9 q=40.9 size=     512KiB time=00:00:03.18 bitrate=1319.1kbits/s speed=0.0175x elapsed=0:03:01.92    \nframe=  162 fps=0.9 q=40.9 size=     512KiB time=00:00:03.20 bitrate=1310.8kbits/s speed=0.0175x elapsed=0:03:02.53    \nframe=  162 fps=0.9 q=40.9 size=     512KiB time=00:00:03.20 bitrate=1310.8kbits/s speed=0.0175x elapsed=0:03:03.05    \nframe=  162 fps=0.9 q=40.9 size=     512KiB time=00:00:03.20 bitrate=1310.8kbits/s speed=0.0174x elapsed=0:03:03.67    \nframe=  162 fps=0.9 q=40.9 size=     512KiB time=00:00:03.20 bitrate=1310.8kbits/s speed=0.0174x elapsed=0:03:04.21    \nframe=  163 fps=0.9 q=41.0 size=     512KiB time=00:00:03.22 bitrate=1302.7kbits/s speed=0.0174x elapsed=0:03:04.79    \nframe=  163 fps=0.9 q=41.0 size=     512KiB time=00:00:03.22 bitrate=1302.7kbits/s speed=0.0174x elapsed=0:03:05.37    \nframe=  163 fps=0.9 q=41.0 size=     512KiB time=00:00:03.22 bitrate=1302.7kbits/s speed=0.0173x elapsed=0:03:05.97    \nframe=  163 fps=0.9 q=41.0 size=     512KiB time=00:00:03.22 bitrate=1302.7kbits/s speed=0.0173x elapsed=0:03:06.66    \nframe=  164 fps=0.9 q=33.1 size=     512KiB time=00:00:03.24 bitrate=1294.6kbits/s speed=0.0173x elapsed=0:03:07.21    \nframe=  165 fps=0.9 q=39.8 size=     512KiB time=00:00:03.26 bitrate=1286.7kbits/s speed=0.0174x elapsed=0:03:07.75    \nframe=  165 fps=0.9 q=39.8 size=     512KiB time=00:00:03.26 bitrate=1286.7kbits/s speed=0.0173x elapsed=0:03:08.37    \nframe=  165 fps=0.9 q=39.8 size=     512KiB time=00:00:03.26 bitrate=1286.7kbits/s speed=0.0173x elapsed=0:03:08.96    \nframe=  165 fps=0.9 q=39.8 size=     512KiB time=00:00:03.26 bitrate=1286.7kbits/s speed=0.0172x elapsed=0:03:09.52    \nframe=  165 fps=0.9 q=39.8 size=     512KiB time=00:00:03.26 bitrate=1286.7kbits/s speed=0.0171x elapsed=0:03:10.10    \nframe=  165 fps=0.9 q=39.8 size=     512KiB time=00:00:03.26 bitrate=1286.7kbits/s speed=0.0171x elapsed=0:03:10.62    \nframe=  165 fps=0.9 q=39.8 size=     512KiB time=00:00:03.26 bitrate=1286.7kbits/s speed=0.017x elapsed=0:03:11.21    \nframe=  167 fps=0.9 q=41.0 size=     512KiB time=00:00:03.30 bitrate=1271.1kbits/s speed=0.0172x elapsed=0:03:11.79    \nframe=  169 fps=0.9 q=39.6 size=     512KiB time=00:00:03.34 bitrate=1255.9kbits/s speed=0.0174x elapsed=0:03:12.32    \nframe=  169 fps=0.9 q=39.6 size=     512KiB time=00:00:03.34 bitrate=1255.9kbits/s speed=0.0173x elapsed=0:03:12.97    \nframe=  169 fps=0.9 q=39.6 size=     512KiB time=00:00:03.34 bitrate=1255.9kbits/s speed=0.0173x elapsed=0:03:13.52    \nframe=  169 fps=0.9 q=39.6 size=     512KiB time=00:00:03.34 bitrate=1255.9kbits/s speed=0.0172x elapsed=0:03:14.13    \nframe=  169 fps=0.9 q=39.6 size=     512KiB time=00:00:03.34 bitrate=1255.9kbits/s speed=0.0171x elapsed=0:03:14.90    \nframe=  170 fps=0.9 q=41.0 size=     512KiB time=00:00:03.36 bitrate=1248.4kbits/s speed=0.0172x elapsed=0:03:15.48    \nframe=  170 fps=0.9 q=41.0 size=     512KiB time=00:00:03.36 bitrate=1248.4kbits/s speed=0.0171x elapsed=0:03:16.02    \nframe=  171 fps=0.9 q=41.0 size=     512KiB time=00:00:03.38 bitrate=1241.0kbits/s speed=0.0172x elapsed=0:03:16.54    \nframe=  172 fps=0.9 q=41.0 size=     512KiB time=00:00:03.40 bitrate=1233.7kbits/s speed=0.0173x elapsed=0:03:17.06    \nframe=  173 fps=0.9 q=33.2 size=     512KiB time=00:00:03.42 bitrate=1226.5kbits/s speed=0.0173x elapsed=0:03:17.57    \nframe=  173 fps=0.9 q=33.2 size=     512KiB time=00:00:03.42 bitrate=1226.5kbits/s speed=0.0173x elapsed=0:03:18.09    \nframe=  173 fps=0.9 q=33.2 size=     512KiB time=00:00:03.42 bitrate=1226.5kbits/s speed=0.0172x elapsed=0:03:18.61    \nframe=  174 fps=0.9 q=39.4 size=     512KiB time=00:00:03.44 bitrate=1219.4kbits/s speed=0.0173x elapsed=0:03:19.14    \nframe=  175 fps=0.9 q=41.0 size=     512KiB time=00:00:03.46 bitrate=1212.3kbits/s speed=0.0173x elapsed=0:03:19.66    \nframe=  175 fps=0.9 q=41.0 size=     512KiB time=00:00:03.46 bitrate=1212.3kbits/s speed=0.0173x elapsed=0:03:20.20    \nframe=  176 fps=0.9 q=41.0 size=     512KiB time=00:00:03.48 bitrate=1205.4kbits/s speed=0.0173x elapsed=0:03:20.73    \nframe=  176 fps=0.9 q=41.0 size=     512KiB time=00:00:03.48 bitrate=1205.4kbits/s speed=0.0173x elapsed=0:03:21.36    \nframe=  176 fps=0.9 q=41.0 size=     512KiB time=00:00:03.48 bitrate=1205.4kbits/s speed=0.0172x elapsed=0:03:21.89    \nframe=  177 fps=0.9 q=32.9 size=     512KiB time=00:00:03.50 bitrate=1198.5kbits/s speed=0.0173x elapsed=0:03:22.46    \nframe=  177 fps=0.9 q=32.9 size=     512KiB time=00:00:03.50 bitrate=1198.5kbits/s speed=0.0172x elapsed=0:03:22.98    \nframe=  177 fps=0.9 q=32.9 size=     512KiB time=00:00:03.50 bitrate=1198.5kbits/s speed=0.0172x elapsed=0:03:23.61    \nframe=  177 fps=0.9 q=32.9 size=     512KiB time=00:00:03.50 bitrate=1198.5kbits/s speed=0.0171x elapsed=0:03:24.18    \nframe=  177 fps=0.9 q=32.9 size=     512KiB time=00:00:03.50 bitrate=1198.5kbits/s speed=0.0171x elapsed=0:03:24.70    \nframe=  177 fps=0.9 q=32.9 size=     512KiB time=00:00:03.50 bitrate=1198.5kbits/s speed=0.0171x elapsed=0:03:25.22    \nframe=  177 fps=0.9 q=32.9 size=     512KiB time=00:00:03.50 bitrate=1198.5kbits/s speed=0.017x elapsed=0:03:25.75    \nframe=  178 fps=0.9 q=39.8 size=     512KiB time=00:00:03.52 bitrate=1191.7kbits/s speed=0.0171x elapsed=0:03:26.28    \nframe=  178 fps=0.9 q=39.8 size=     512KiB time=00:00:03.52 bitrate=1191.7kbits/s speed=0.017x elapsed=0:03:26.82    \nframe=  179 fps=0.9 q=41.0 size=     512KiB time=00:00:03.54 bitrate=1184.9kbits/s speed=0.0171x elapsed=0:03:27.42    \nframe=  179 fps=0.9 q=41.0 size=     512KiB time=00:00:03.54 bitrate=1184.9kbits/s speed=0.017x elapsed=0:03:27.93    \nframe=  180 fps=0.9 q=41.0 size=     512KiB time=00:00:03.56 bitrate=1178.3kbits/s speed=0.0171x elapsed=0:03:28.45    \nframe=  180 fps=0.9 q=41.0 size=     512KiB time=00:00:03.56 bitrate=1178.3kbits/s speed=0.017x elapsed=0:03:28.99    \nframe=  180 fps=0.9 q=41.0 size=     512KiB time=00:00:03.56 bitrate=1178.3kbits/s speed=0.017x elapsed=0:03:29.51    \nframe=  180 fps=0.9 q=41.0 size=     512KiB time=00:00:03.56 bitrate=1178.3kbits/s speed=0.0169x elapsed=0:03:30.03    \nframe=  180 fps=0.9 q=41.0 size=     512KiB time=00:00:03.56 bitrate=1178.3kbits/s speed=0.0169x elapsed=0:03:30.54    \nframe=  180 fps=0.9 q=41.0 size=     512KiB time=00:00:03.56 bitrate=1178.3kbits/s speed=0.0169x elapsed=0:03:31.06    \nframe=  181 fps=0.9 q=41.0 size=     512KiB time=00:00:03.58 bitrate=1171.7kbits/s speed=0.0169x elapsed=0:03:31.61    \nframe=  182 fps=0.9 q=33.2 size=     512KiB time=00:00:03.60 bitrate=1165.2kbits/s speed=0.017x elapsed=0:03:32.20    \nframe=  182 fps=0.9 q=33.2 size=     512KiB time=00:00:03.60 bitrate=1165.2kbits/s speed=0.0169x elapsed=0:03:32.73    \nframe=  182 fps=0.9 q=33.2 size=     512KiB time=00:00:03.60 bitrate=1165.2kbits/s speed=0.0169x elapsed=0:03:33.27    \nframe=  183 fps=0.9 q=39.8 size=     512KiB time=00:00:03.62 bitrate=1158.7kbits/s speed=0.0169x elapsed=0:03:33.79    \nframe=  183 fps=0.9 q=39.8 size=     512KiB time=00:00:03.62 bitrate=1158.7kbits/s speed=0.0169x elapsed=0:03:34.36    \nframe=  183 fps=0.9 q=39.8 size=     512KiB time=00:00:03.62 bitrate=1158.7kbits/s speed=0.0168x elapsed=0:03:34.93    \nframe=  184 fps=0.9 q=41.0 size=     512KiB time=00:00:03.64 bitrate=1152.4kbits/s speed=0.0169x elapsed=0:03:35.45    \nframe=  184 fps=0.9 q=41.0 size=     512KiB time=00:00:03.64 bitrate=1152.4kbits/s speed=0.0169x elapsed=0:03:35.97    \nframe=  184 fps=0.8 q=41.0 size=     512KiB time=00:00:03.64 bitrate=1152.4kbits/s speed=0.0168x elapsed=0:03:36.49    \nframe=  184 fps=0.8 q=41.0 size=     512KiB time=00:00:03.64 bitrate=1152.4kbits/s speed=0.0168x elapsed=0:03:37.02    \nframe=  185 fps=0.9 q=41.0 size=     512KiB time=00:00:03.66 bitrate=1146.1kbits/s speed=0.0168x elapsed=0:03:37.57    \nframe=  186 fps=0.9 q=33.7 size=     512KiB time=00:00:03.68 bitrate=1139.9kbits/s speed=0.0169x elapsed=0:03:38.09    \nframe=  187 fps=0.9 q=39.6 size=     512KiB time=00:00:03.70 bitrate=1133.7kbits/s speed=0.0169x elapsed=0:03:38.61    \nframe=  187 fps=0.9 q=39.6 size=     512KiB time=00:00:03.70 bitrate=1133.7kbits/s speed=0.0169x elapsed=0:03:39.15    \nframe=  187 fps=0.9 q=39.6 size=     512KiB time=00:00:03.70 bitrate=1133.7kbits/s speed=0.0168x elapsed=0:03:39.67    \nframe=  187 fps=0.8 q=39.6 size=     512KiB time=00:00:03.70 bitrate=1133.7kbits/s speed=0.0168x elapsed=0:03:40.22    \nframe=  189 fps=0.9 q=40.9 size=     512KiB time=00:00:03.74 bitrate=1121.6kbits/s speed=0.0169x elapsed=0:03:40.74    \nframe=  189 fps=0.9 q=40.9 size=     512KiB time=00:00:03.74 bitrate=1121.6kbits/s speed=0.0169x elapsed=0:03:41.26    \nframe=  189 fps=0.9 q=40.9 size=     512KiB time=00:00:03.74 bitrate=1121.6kbits/s speed=0.0169x elapsed=0:03:41.79    \nframe=  189 fps=0.9 q=40.9 size=     512KiB time=00:00:03.74 bitrate=1121.6kbits/s speed=0.0168x elapsed=0:03:42.34    \nframe=  189 fps=0.8 q=40.9 size=     512KiB time=00:00:03.74 bitrate=1121.6kbits/s speed=0.0168x elapsed=0:03:42.89    \nframe=  189 fps=0.8 q=40.9 size=     512KiB time=00:00:03.74 bitrate=1121.6kbits/s speed=0.0167x elapsed=0:03:43.41    \nframe=  189 fps=0.8 q=40.9 size=     512KiB time=00:00:03.74 bitrate=1121.6kbits/s speed=0.0167x elapsed=0:03:43.95    \nframe=  190 fps=0.8 q=41.0 size=     512KiB time=00:00:03.76 bitrate=1115.6kbits/s speed=0.0167x elapsed=0:03:44.49    \nframe=  190 fps=0.8 q=41.0 size=     512KiB time=00:00:03.76 bitrate=1115.6kbits/s speed=0.0167x elapsed=0:03:45.03    \nframe=  192 fps=0.9 q=40.4 size=     512KiB time=00:00:03.80 bitrate=1103.9kbits/s speed=0.0168x elapsed=0:03:45.56    \nframe=  192 fps=0.8 q=40.4 size=     512KiB time=00:00:03.80 bitrate=1103.9kbits/s speed=0.0168x elapsed=0:03:46.08    \nframe=  192 fps=0.8 q=40.4 size=     512KiB time=00:00:03.80 bitrate=1103.9kbits/s speed=0.0168x elapsed=0:03:46.60    \nframe=  192 fps=0.8 q=40.4 size=     512KiB time=00:00:03.80 bitrate=1103.9kbits/s speed=0.0167x elapsed=0:03:47.12    \nframe=  192 fps=0.8 q=40.4 size=     512KiB time=00:00:03.80 bitrate=1103.9kbits/s speed=0.0167x elapsed=0:03:47.63    \nframe=  193 fps=0.8 q=42.0 size=     512KiB time=00:00:03.82 bitrate=1098.1kbits/s speed=0.0167x elapsed=0:03:48.15    \nframe=  194 fps=0.8 q=41.0 size=     512KiB time=00:00:03.84 bitrate=1092.4kbits/s speed=0.0168x elapsed=0:03:48.67    \nframe=  194 fps=0.8 q=41.0 size=     512KiB time=00:00:03.84 bitrate=1092.4kbits/s speed=0.0168x elapsed=0:03:49.19    \nframe=  194 fps=0.8 q=41.0 size=     512KiB time=00:00:03.84 bitrate=1092.4kbits/s speed=0.0167x elapsed=0:03:49.75    \nframe=  195 fps=0.8 q=41.0 size=     512KiB time=00:00:03.86 bitrate=1086.7kbits/s speed=0.0168x elapsed=0:03:50.26    \nframe=  195 fps=0.8 q=41.0 size=     512KiB time=00:00:03.86 bitrate=1086.7kbits/s speed=0.0167x elapsed=0:03:50.77    \nframe=  195 fps=0.8 q=41.0 size=     512KiB time=00:00:03.86 bitrate=1086.7kbits/s speed=0.0167x elapsed=0:03:51.31    \nframe=  195 fps=0.8 q=41.0 size=     512KiB time=00:00:03.86 bitrate=1086.7kbits/s speed=0.0166x elapsed=0:03:51.85    \nframe=  195 fps=0.8 q=41.0 size=     512KiB time=00:00:03.86 bitrate=1086.7kbits/s speed=0.0166x elapsed=0:03:52.39    \nframe=  195 fps=0.8 q=41.0 size=     512KiB time=00:00:03.86 bitrate=1086.7kbits/s speed=0.0166x elapsed=0:03:52.91    \nframe=  195 fps=0.8 q=41.0 size=     512KiB time=00:00:03.86 bitrate=1086.7kbits/s speed=0.0165x elapsed=0:03:53.43    \nframe=  195 fps=0.8 q=41.0 size=     512KiB time=00:00:03.86 bitrate=1086.7kbits/s speed=0.0165x elapsed=0:03:53.97    \nframe=  196 fps=0.8 q=34.1 size=     512KiB time=00:00:03.88 bitrate=1081.1kbits/s speed=0.0165x elapsed=0:03:54.49    \nframe=  196 fps=0.8 q=34.1 size=     512KiB time=00:00:03.88 bitrate=1081.1kbits/s speed=0.0165x elapsed=0:03:55.02    \nframe=  196 fps=0.8 q=34.1 size=     512KiB time=00:00:03.88 bitrate=1081.1kbits/s speed=0.0165x elapsed=0:03:55.53    \nframe=  197 fps=0.8 q=39.6 size=     512KiB time=00:00:03.90 bitrate=1075.6kbits/s speed=0.0165x elapsed=0:03:56.06    \nframe=  197 fps=0.8 q=39.6 size=     512KiB time=00:00:03.90 bitrate=1075.6kbits/s speed=0.0165x elapsed=0:03:56.60    \nframe=  197 fps=0.8 q=39.6 size=     512KiB time=00:00:03.90 bitrate=1075.6kbits/s speed=0.0164x elapsed=0:03:57.13    \nframe=  198 fps=0.8 q=41.0 size=     512KiB time=00:00:03.92 bitrate=1070.1kbits/s speed=0.0165x elapsed=0:03:57.65    \nframe=  198 fps=0.8 q=41.0 size=     512KiB time=00:00:03.92 bitrate=1070.1kbits/s speed=0.0165x elapsed=0:03:58.18    \nframe=  198 fps=0.8 q=41.0 size=     512KiB time=00:00:03.92 bitrate=1070.1kbits/s speed=0.0164x elapsed=0:03:58.70    \nframe=  199 fps=0.8 q=41.0 size=     512KiB time=00:00:03.94 bitrate=1064.6kbits/s speed=0.0165x elapsed=0:03:59.21    \nframe=  199 fps=0.8 q=41.0 size=     512KiB time=00:00:03.94 bitrate=1064.6kbits/s speed=0.0164x elapsed=0:03:59.75    \nframe=  199 fps=0.8 q=41.0 size=     512KiB time=00:00:03.94 bitrate=1064.6kbits/s speed=0.0164x elapsed=0:04:00.30    \nframe=  199 fps=0.8 q=41.0 size=     512KiB time=00:00:03.94 bitrate=1064.6kbits/s speed=0.0164x elapsed=0:04:00.82    \nframe=  199 fps=0.8 q=41.0 size=     512KiB time=00:00:03.94 bitrate=1064.6kbits/s speed=0.0163x elapsed=0:04:01.37    \nframe=  200 fps=0.8 q=42.0 size=     512KiB time=00:00:03.96 bitrate=1059.3kbits/s speed=0.0164x elapsed=0:04:01.94    \nframe=  200 fps=0.8 q=42.0 size=     512KiB time=00:00:03.96 bitrate=1059.3kbits/s speed=0.0163x elapsed=0:04:02.49    \nframe=  200 fps=0.8 q=42.0 size=     512KiB time=00:00:03.96 bitrate=1059.3kbits/s speed=0.0163x elapsed=0:04:03.03    \nframe=  200 fps=0.8 q=42.0 size=     512KiB time=00:00:03.96 bitrate=1059.3kbits/s speed=0.0163x elapsed=0:04:03.55    \nframe=  200 fps=0.8 q=42.0 size=     512KiB time=00:00:03.96 bitrate=1059.3kbits/s speed=0.0162x elapsed=0:04:04.05    \nframe=  200 fps=0.8 q=42.0 size=     512KiB time=00:00:03.96 bitrate=1059.3kbits/s speed=0.0162x elapsed=0:04:04.57    \nframe=  200 fps=0.8 q=42.0 size=     512KiB time=00:00:03.96 bitrate=1059.3kbits/s speed=0.0162x elapsed=0:04:05.11    \nframe=  200 fps=0.8 q=42.0 size=     512KiB time=00:00:03.96 bitrate=1059.3kbits/s speed=0.0161x elapsed=0:04:05.64    \nframe=  201 fps=0.8 q=36.6 size=     512KiB time=00:00:03.98 bitrate=1053.9kbits/s speed=0.0162x elapsed=0:04:06.17    \nframe=  201 fps=0.8 q=36.6 size=     512KiB time=00:00:03.98 bitrate=1053.9kbits/s speed=0.0161x elapsed=0:04:06.70    \nframe=  202 fps=0.8 q=42.0 size=     512KiB time=00:00:04.00 bitrate=1048.7kbits/s speed=0.0162x elapsed=0:04:07.22    \nframe=  202 fps=0.8 q=42.0 size=     512KiB time=00:00:04.00 bitrate=1048.7kbits/s speed=0.0161x elapsed=0:04:07.74    \nframe=  203 fps=0.8 q=42.0 size=     512KiB time=00:00:04.02 bitrate=1043.4kbits/s speed=0.0162x elapsed=0:04:08.27    \nframe=  203 fps=0.8 q=42.0 size=     512KiB time=00:00:04.02 bitrate=1043.4kbits/s speed=0.0162x elapsed=0:04:08.79    \nframe=  203 fps=0.8 q=42.0 size=     512KiB time=00:00:04.02 bitrate=1043.4kbits/s speed=0.0161x elapsed=0:04:09.31    \nframe=  204 fps=0.8 q=43.0 size=     512KiB time=00:00:04.04 bitrate=1038.3kbits/s speed=0.0162x elapsed=0:04:09.85    \nframe=  205 fps=0.8 q=36.0 size=     512KiB time=00:00:04.06 bitrate=1033.2kbits/s speed=0.0162x elapsed=0:04:10.38    \nframe=  205 fps=0.8 q=36.0 size=     512KiB time=00:00:04.06 bitrate=1033.2kbits/s speed=0.0162x elapsed=0:04:10.90    \nframe=  206 fps=0.8 q=42.7 size=     512KiB time=00:00:04.08 bitrate=1028.1kbits/s speed=0.0162x elapsed=0:04:11.42    \nframe=  206 fps=0.8 q=42.7 size=     512KiB time=00:00:04.08 bitrate=1028.1kbits/s speed=0.0162x elapsed=0:04:11.94    \nframe=  206 fps=0.8 q=42.7 size=     512KiB time=00:00:04.08 bitrate=1028.1kbits/s speed=0.0162x elapsed=0:04:12.46    \nframe=  208 fps=0.8 q=44.0 size=     512KiB time=00:00:04.12 bitrate=1018.1kbits/s speed=0.0163x elapsed=0:04:12.98    \nframe=  209 fps=0.8 q=44.0 size=     512KiB time=00:00:04.14 bitrate=1013.2kbits/s speed=0.0163x elapsed=0:04:13.49    \nframe=  210 fps=0.8 q=37.2 size=     512KiB time=00:00:04.16 bitrate=1008.3kbits/s speed=0.0164x elapsed=0:04:14.01    \nframe=  210 fps=0.8 q=37.2 size=     512KiB time=00:00:04.16 bitrate=1008.3kbits/s speed=0.0163x elapsed=0:04:14.53    \nframe=  210 fps=0.8 q=37.2 size=     512KiB time=00:00:04.16 bitrate=1008.3kbits/s speed=0.0163x elapsed=0:04:15.05    \nframe=  210 fps=0.8 q=37.2 size=     512KiB time=00:00:04.16 bitrate=1008.3kbits/s speed=0.0163x elapsed=0:04:15.57    \nframe=  211 fps=0.8 q=42.9 size=     512KiB time=00:00:04.18 bitrate=1003.5kbits/s speed=0.0163x elapsed=0:04:16.10    \nframe=  212 fps=0.8 q=44.0 size=     512KiB time=00:00:04.20 bitrate= 998.7kbits/s speed=0.0164x elapsed=0:04:16.62    \nframe=  213 fps=0.8 q=44.0 size=     512KiB time=00:00:04.22 bitrate= 994.0kbits/s speed=0.0164x elapsed=0:04:17.14    \nframe=  214 fps=0.8 q=44.0 size=     512KiB time=00:00:04.24 bitrate= 989.3kbits/s speed=0.0165x elapsed=0:04:17.64    \nframe=  214 fps=0.8 q=44.0 size=     512KiB time=00:00:04.24 bitrate= 989.3kbits/s speed=0.0164x elapsed=0:04:18.17    \nframe=  214 fps=0.8 q=44.0 size=     512KiB time=00:00:04.24 bitrate= 989.3kbits/s speed=0.0164x elapsed=0:04:18.68    \nframe=  216 fps=0.8 q=43.0 size=     768KiB time=00:00:04.28 bitrate=1470.0kbits/s speed=0.0165x elapsed=0:04:19.20    \nframe=  216 fps=0.8 q=43.0 size=     768KiB time=00:00:04.28 bitrate=1470.0kbits/s speed=0.0165x elapsed=0:04:19.71    \nframe=  216 fps=0.8 q=43.0 size=     768KiB time=00:00:04.28 bitrate=1470.0kbits/s speed=0.0164x elapsed=0:04:20.25    \nframe=  216 fps=0.8 q=43.0 size=     768KiB time=00:00:04.28 bitrate=1470.0kbits/s speed=0.0164x elapsed=0:04:20.80    \nframe=  217 fps=0.8 q=44.0 size=     768KiB time=00:00:04.30 bitrate=1463.2kbits/s speed=0.0165x elapsed=0:04:21.33    \nframe=  218 fps=0.8 q=44.0 size=     768KiB time=00:00:04.32 bitrate=1456.4kbits/s speed=0.0165x elapsed=0:04:21.87    \nframe=  219 fps=0.8 q=44.0 size=     768KiB time=00:00:04.34 bitrate=1449.7kbits/s speed=0.0165x elapsed=0:04:22.43    \nframe=  219 fps=0.8 q=44.0 size=     768KiB time=00:00:04.34 bitrate=1449.7kbits/s speed=0.0165x elapsed=0:04:22.99    \nframe=  219 fps=0.8 q=44.0 size=     768KiB time=00:00:04.34 bitrate=1449.7kbits/s speed=0.0165x elapsed=0:04:23.54    \nframe=  219 fps=0.8 q=44.0 size=     768KiB time=00:00:04.34 bitrate=1449.7kbits/s speed=0.0164x elapsed=0:04:24.07    \nframe=  220 fps=0.8 q=36.8 size=     768KiB time=00:00:04.36 bitrate=1443.1kbits/s speed=0.0165x elapsed=0:04:24.59    \nframe=  220 fps=0.8 q=36.8 size=     768KiB time=00:00:04.36 bitrate=1443.1kbits/s speed=0.0164x elapsed=0:04:25.11    \nframe=  220 fps=0.8 q=36.8 size=     768KiB time=00:00:04.36 bitrate=1443.1kbits/s speed=0.0164x elapsed=0:04:25.63    \nframe=  220 fps=0.8 q=36.8 size=     768KiB time=00:00:04.36 bitrate=1443.1kbits/s speed=0.0164x elapsed=0:04:26.15    \nframe=  220 fps=0.8 q=36.8 size=     768KiB time=00:00:04.36 bitrate=1443.1kbits/s speed=0.0163x elapsed=0:04:26.67    \nframe=  221 fps=0.8 q=43.0 size=     768KiB time=00:00:04.38 bitrate=1436.5kbits/s speed=0.0164x elapsed=0:04:27.19    \nframe=  221 fps=0.8 q=43.0 size=     768KiB time=00:00:04.38 bitrate=1436.5kbits/s speed=0.0164x elapsed=0:04:27.71    \nframe=  222 fps=0.8 q=44.0 size=     768KiB time=00:00:04.40 bitrate=1430.0kbits/s speed=0.0164x elapsed=0:04:28.25    \nframe=  222 fps=0.8 q=44.0 size=     768KiB time=00:00:04.40 bitrate=1430.0kbits/s speed=0.0164x elapsed=0:04:28.75    \nframe=  222 fps=0.8 q=44.0 size=     768KiB time=00:00:04.40 bitrate=1430.0kbits/s speed=0.0163x elapsed=0:04:29.28    \nframe=  222 fps=0.8 q=44.0 size=     768KiB time=00:00:04.40 bitrate=1430.0kbits/s speed=0.0163x elapsed=0:04:29.81    \nframe=  222 fps=0.8 q=44.0 size=     768KiB time=00:00:04.40 bitrate=1430.0kbits/s speed=0.0163x elapsed=0:04:30.33    \nframe=  222 fps=0.8 q=44.0 size=     768KiB time=00:00:04.40 bitrate=1430.0kbits/s speed=0.0162x elapsed=0:04:30.86    \nframe=  223 fps=0.8 q=42.0 size=     768KiB time=00:00:04.42 bitrate=1423.5kbits/s speed=0.0163x elapsed=0:04:31.38    \nframe=  223 fps=0.8 q=42.0 size=     768KiB time=00:00:04.42 bitrate=1423.5kbits/s speed=0.0163x elapsed=0:04:31.91    \nframe=  223 fps=0.8 q=42.0 size=     768KiB time=00:00:04.42 bitrate=1423.5kbits/s speed=0.0162x elapsed=0:04:32.43    \nframe=  223 fps=0.8 q=42.0 size=     768KiB time=00:00:04.42 bitrate=1423.5kbits/s speed=0.0162x elapsed=0:04:32.97    \nframe=  223 fps=0.8 q=42.0 size=     768KiB time=00:00:04.42 bitrate=1423.5kbits/s speed=0.0162x elapsed=0:04:33.49    \nframe=  223 fps=0.8 q=42.0 size=     768KiB time=00:00:04.42 bitrate=1423.5kbits/s speed=0.0161x elapsed=0:04:34.02    \nframe=  223 fps=0.8 q=42.0 size=     768KiB time=00:00:04.42 bitrate=1423.5kbits/s speed=0.0161x elapsed=0:04:34.54    \nframe=  224 fps=0.8 q=35.0 size=     768KiB time=00:00:04.44 bitrate=1417.1kbits/s speed=0.0161x elapsed=0:04:35.06    \nframe=  224 fps=0.8 q=35.0 size=     768KiB time=00:00:04.44 bitrate=1417.1kbits/s speed=0.0161x elapsed=0:04:35.59    \nframe=  224 fps=0.8 q=35.0 size=     768KiB time=00:00:04.44 bitrate=1417.1kbits/s speed=0.0161x elapsed=0:04:36.10    \nframe=  224 fps=0.8 q=35.0 size=     768KiB time=00:00:04.44 bitrate=1417.1kbits/s speed=0.016x elapsed=0:04:36.65    \nframe=  224 fps=0.8 q=35.0 size=     768KiB time=00:00:04.44 bitrate=1417.1kbits/s speed=0.016x elapsed=0:04:37.17    \nframe=  224 fps=0.8 q=35.0 size=     768KiB time=00:00:04.44 bitrate=1417.1kbits/s speed=0.016x elapsed=0:04:37.71    \nframe=  224 fps=0.8 q=35.0 size=     768KiB time=00:00:04.44 bitrate=1417.1kbits/s speed=0.016x elapsed=0:04:38.23    \nframe=  224 fps=0.8 q=35.0 size=     768KiB time=00:00:04.44 bitrate=1417.1kbits/s speed=0.0159x elapsed=0:04:38.77    \nframe=  224 fps=0.8 q=35.0 size=     768KiB time=00:00:04.44 bitrate=1417.1kbits/s speed=0.0159x elapsed=0:04:39.29    \nframe=  224 fps=0.8 q=35.0 size=     768KiB time=00:00:04.44 bitrate=1417.1kbits/s speed=0.0159x elapsed=0:04:39.85    \nframe=  224 fps=0.8 q=35.0 size=     768KiB time=00:00:04.44 bitrate=1417.1kbits/s speed=0.0158x elapsed=0:04:40.35    \nframe=  225 fps=0.8 q=41.6 size=     768KiB time=00:00:04.46 bitrate=1410.7kbits/s speed=0.0159x elapsed=0:04:40.90    \nframe=  226 fps=0.8 q=42.0 size=     768KiB time=00:00:04.48 bitrate=1404.4kbits/s speed=0.0159x elapsed=0:04:41.41    \nframe=  226 fps=0.8 q=42.0 size=     768KiB time=00:00:04.48 bitrate=1404.4kbits/s speed=0.0159x elapsed=0:04:41.93    \nframe=  226 fps=0.8 q=42.0 size=     768KiB time=00:00:04.48 bitrate=1404.4kbits/s speed=0.0159x elapsed=0:04:42.47    \nframe=  226 fps=0.8 q=42.0 size=     768KiB time=00:00:04.48 bitrate=1404.4kbits/s speed=0.0158x elapsed=0:04:43.00    \nframe=  227 fps=0.8 q=42.0 size=     768KiB time=00:00:04.50 bitrate=1398.2kbits/s speed=0.0159x elapsed=0:04:43.52    \nframe=  227 fps=0.8 q=42.0 size=     768KiB time=00:00:04.50 bitrate=1398.2kbits/s speed=0.0158x elapsed=0:04:44.06    \nframe=  227 fps=0.8 q=42.0 size=     768KiB time=00:00:04.50 bitrate=1398.2kbits/s speed=0.0158x elapsed=0:04:44.58    \nframe=  227 fps=0.8 q=42.0 size=     768KiB time=00:00:04.50 bitrate=1398.2kbits/s speed=0.0158x elapsed=0:04:45.11    \nframe=  228 fps=0.8 q=34.8 size=     768KiB time=00:00:04.52 bitrate=1392.0kbits/s speed=0.0158x elapsed=0:04:45.63    \nframe=  228 fps=0.8 q=34.8 size=     768KiB time=00:00:04.52 bitrate=1392.0kbits/s speed=0.0158x elapsed=0:04:46.18    \nframe=  228 fps=0.8 q=34.8 size=     768KiB time=00:00:04.52 bitrate=1392.0kbits/s speed=0.0158x elapsed=0:04:46.70    \nframe=  228 fps=0.8 q=34.8 size=     768KiB time=00:00:04.52 bitrate=1392.0kbits/s speed=0.0157x elapsed=0:04:47.22    \nframe=  228 fps=0.8 q=34.8 size=     768KiB time=00:00:04.52 bitrate=1392.0kbits/s speed=0.0157x elapsed=0:04:47.74    \nframe=  228 fps=0.8 q=34.8 size=     768KiB time=00:00:04.52 bitrate=1392.0kbits/s speed=0.0157x elapsed=0:04:48.27    \nframe=  228 fps=0.8 q=34.8 size=     768KiB time=00:00:04.52 bitrate=1392.0kbits/s speed=0.0157x elapsed=0:04:48.79    \nframe=  229 fps=0.8 q=40.9 size=     768KiB time=00:00:04.54 bitrate=1385.9kbits/s speed=0.0157x elapsed=0:04:49.31    \nframe=  230 fps=0.8 q=42.0 size=     768KiB time=00:00:04.56 bitrate=1379.8kbits/s speed=0.0157x elapsed=0:04:49.85    \nframe=  230 fps=0.8 q=42.0 size=     768KiB time=00:00:04.56 bitrate=1379.8kbits/s speed=0.0157x elapsed=0:04:50.38    \nframe=  230 fps=0.8 q=42.0 size=     768KiB time=00:00:04.56 bitrate=1379.8kbits/s speed=0.0157x elapsed=0:04:50.91    \nframe=  230 fps=0.8 q=42.0 size=     768KiB time=00:00:04.56 bitrate=1379.8kbits/s speed=0.0156x elapsed=0:04:51.43    \nframe=  231 fps=0.8 q=43.0 size=     768KiB time=00:00:04.58 bitrate=1373.8kbits/s speed=0.0157x elapsed=0:04:51.98    \nframe=  231 fps=0.8 q=43.0 size=     768KiB time=00:00:04.58 bitrate=1373.8kbits/s speed=0.0157x elapsed=0:04:52.50    \nframe=  231 fps=0.8 q=43.0 size=     768KiB time=00:00:04.58 bitrate=1373.8kbits/s speed=0.0156x elapsed=0:04:53.04    \nframe=  232 fps=0.8 q=35.1 size=     768KiB time=00:00:04.60 bitrate=1367.8kbits/s speed=0.0157x elapsed=0:04:53.58    \nframe=  232 fps=0.8 q=35.1 size=     768KiB time=00:00:04.60 bitrate=1367.8kbits/s speed=0.0156x elapsed=0:04:54.13    \nframe=  232 fps=0.8 q=35.1 size=     768KiB time=00:00:04.60 bitrate=1367.8kbits/s speed=0.0156x elapsed=0:04:54.65    \nframe=  232 fps=0.8 q=35.1 size=     768KiB time=00:00:04.60 bitrate=1367.8kbits/s speed=0.0156x elapsed=0:04:55.17    \nframe=  234 fps=0.8 q=42.0 size=     768KiB time=00:00:04.64 bitrate=1356.0kbits/s speed=0.0157x elapsed=0:04:55.68    \nframe=  235 fps=0.8 q=42.0 size=     768KiB time=00:00:04.66 bitrate=1350.2kbits/s speed=0.0157x elapsed=0:04:56.20    \nframe=  236 fps=0.8 q=42.0 size=     768KiB time=00:00:04.68 bitrate=1344.4kbits/s speed=0.0158x elapsed=0:04:56.73    \nframe=  237 fps=0.8 q=35.2 size=     768KiB time=00:00:04.70 bitrate=1338.7kbits/s speed=0.0158x elapsed=0:04:57.26    \nframe=  237 fps=0.8 q=35.2 size=     768KiB time=00:00:04.70 bitrate=1338.7kbits/s speed=0.0158x elapsed=0:04:57.78    \nframe=  237 fps=0.8 q=35.2 size=     768KiB time=00:00:04.70 bitrate=1338.7kbits/s speed=0.0158x elapsed=0:04:58.29    \nframe=  237 fps=0.8 q=35.2 size=     768KiB time=00:00:04.70 bitrate=1338.7kbits/s speed=0.0157x elapsed=0:04:58.85    \nframe=  237 fps=0.8 q=35.2 size=     768KiB time=00:00:04.70 bitrate=1338.7kbits/s speed=0.0157x elapsed=0:04:59.37    \nframe=  237 fps=0.8 q=35.2 size=     768KiB time=00:00:04.70 bitrate=1338.7kbits/s speed=0.0157x elapsed=0:04:59.88    \nframe=  238 fps=0.8 q=40.9 size=     768KiB time=00:00:04.72 bitrate=1333.0kbits/s speed=0.0157x elapsed=0:05:00.42    \nframe=  238 fps=0.8 q=40.9 size=     768KiB time=00:00:04.72 bitrate=1333.0kbits/s speed=0.0157x elapsed=0:05:00.97    \nframe=  238 fps=0.8 q=40.9 size=     768KiB time=00:00:04.72 bitrate=1333.0kbits/s speed=0.0157x elapsed=0:05:01.51    \nframe=  238 fps=0.8 q=40.9 size=     768KiB time=00:00:04.72 bitrate=1333.0kbits/s speed=0.0156x elapsed=0:05:02.06    \nframe=  238 fps=0.8 q=40.9 size=     768KiB time=00:00:04.72 bitrate=1333.0kbits/s speed=0.0156x elapsed=0:05:02.61    \nframe=  239 fps=0.8 q=42.0 size=     768KiB time=00:00:04.74 bitrate=1327.4kbits/s speed=0.0156x elapsed=0:05:03.15    \nframe=  239 fps=0.8 q=42.0 size=     768KiB time=00:00:04.74 bitrate=1327.4kbits/s speed=0.0156x elapsed=0:05:03.69    \nframe=  239 fps=0.8 q=42.0 size=     768KiB time=00:00:04.74 bitrate=1327.4kbits/s speed=0.0156x elapsed=0:05:04.24    \nframe=  239 fps=0.8 q=42.0 size=     768KiB time=00:00:04.74 bitrate=1327.4kbits/s speed=0.0156x elapsed=0:05:04.79    \nframe=  240 fps=0.8 q=42.0 size=     768KiB time=00:00:04.76 bitrate=1321.8kbits/s speed=0.0156x elapsed=0:05:05.31    \nframe=  241 fps=0.8 q=35.0 size=     768KiB time=00:00:04.78 bitrate=1316.3kbits/s speed=0.0156x elapsed=0:05:05.85    \nframe=  241 fps=0.8 q=35.0 size=     768KiB time=00:00:04.78 bitrate=1316.3kbits/s speed=0.0156x elapsed=0:05:06.37    \nframe=  241 fps=0.8 q=35.0 size=     768KiB time=00:00:04.78 bitrate=1316.3kbits/s speed=0.0156x elapsed=0:05:06.94    \nframe=  241 fps=0.8 q=35.0 size=     768KiB time=00:00:04.78 bitrate=1316.3kbits/s speed=0.0155x elapsed=0:05:07.45    \nframe=  241 fps=0.8 q=35.0 size=     768KiB time=00:00:04.78 bitrate=1316.3kbits/s speed=0.0155x elapsed=0:05:08.00    \nframe=  241 fps=0.8 q=35.0 size=     768KiB time=00:00:04.78 bitrate=1316.3kbits/s speed=0.0155x elapsed=0:05:08.52    \nframe=  241 fps=0.8 q=35.0 size=     768KiB time=00:00:04.78 bitrate=1316.3kbits/s speed=0.0155x elapsed=0:05:09.06    \nframe=  241 fps=0.8 q=35.0 size=     768KiB time=00:00:04.78 bitrate=1316.3kbits/s speed=0.0154x elapsed=0:05:09.60    \nframe=  241 fps=0.8 q=35.0 size=     768KiB time=00:00:04.78 bitrate=1316.3kbits/s speed=0.0154x elapsed=0:05:10.15    \nframe=  241 fps=0.8 q=35.0 size=     768KiB time=00:00:04.78 bitrate=1316.3kbits/s speed=0.0154x elapsed=0:05:10.69    \nframe=  242 fps=0.8 q=40.1 size=     768KiB time=00:00:04.80 bitrate=1310.8kbits/s speed=0.0154x elapsed=0:05:11.21    \nframe=  242 fps=0.8 q=40.1 size=     768KiB time=00:00:04.80 bitrate=1310.8kbits/s speed=0.0154x elapsed=0:05:11.73    \nframe=  243 fps=0.8 q=42.0 size=     768KiB time=00:00:04.82 bitrate=1305.4kbits/s speed=0.0154x elapsed=0:05:12.24    \nframe=  244 fps=0.8 q=40.0 size=     768KiB time=00:00:04.84 bitrate=1300.0kbits/s speed=0.0155x elapsed=0:05:12.83    \nframe=  244 fps=0.8 q=40.0 size=     768KiB time=00:00:04.84 bitrate=1300.0kbits/s speed=0.0154x elapsed=0:05:13.33    \nframe=  244 fps=0.8 q=40.0 size=     768KiB time=00:00:04.84 bitrate=1300.0kbits/s speed=0.0154x elapsed=0:05:13.86    \nframe=  244 fps=0.8 q=40.0 size=     768KiB time=00:00:04.84 bitrate=1300.0kbits/s speed=0.0154x elapsed=0:05:14.38    \nframe=  244 fps=0.8 q=40.0 size=     768KiB time=00:00:04.84 bitrate=1300.0kbits/s speed=0.0154x elapsed=0:05:14.91    \nframe=  246 fps=0.8 q=37.2 size=     768KiB time=00:00:04.88 bitrate=1289.3kbits/s speed=0.0155x elapsed=0:05:15.44    \nframe=  246 fps=0.8 q=37.2 size=     768KiB time=00:00:04.88 bitrate=1289.3kbits/s speed=0.0154x elapsed=0:05:15.96    \nframe=  247 fps=0.8 q=34.6 size=     768KiB time=00:00:04.90 bitrate=1284.0kbits/s speed=0.0155x elapsed=0:05:16.48    \nframe=  249 fps=0.8 q=36.8 size=     768KiB time=00:00:04.94 bitrate=1273.6kbits/s speed=0.0156x elapsed=0:05:17.00    \n[mp4 @ 0000016f5df1aa40] Starting second pass: moving the moov atom to the beginning of the file\n[out#0/mp4 @ 0000016f5dfa7d80] video:883KiB audio:0KiB subtitle:0KiB other streams:0KiB global headers:2KiB muxing overhead: 0.697390%\nframe=  250 fps=0.8 q=39.0 Lsize=     889KiB time=00:00:04.96 bitrate=1469.1kbits/s speed=0.0156x elapsed=0:05:17.28    \nx265 [info]: frame I:      1, Avg QP:43.57  kb/s: 12472.40\nx265 [info]: frame P:     53, Avg QP:36.23  kb/s: 5859.06 \nx265 [info]: frame B:    196, Avg QP:42.86  kb/s: 195.94  \nx265 [info]: Weighted P-Frames: Y:0.0% UV:0.0%\n\nencoded 250 frames in 316.76s (0.79 fps), 1445.62 kb/s, Avg QP:41.46\n",
  "seconds": 317.9118387699127,
  "probe_out": {}
}